<svg width="96" height="96" viewBox="0 0 96 96" fill="none" xmlns="http://www.w3.org/2000/svg">
<g clip-path="url(#clip0_54_7988)">
<path d="M91.3098 96V86.6353L96 81.9451V91.3098L91.3098 96ZM0 4.6902L4.6902 0H14.0549L9.36471 4.6902H0Z" fill="#C0392B"/>
<path d="M4.69019 0H40.9882L96 55.0275V91.3255L4.69019 0Z" fill="#E74C3C"/>
<path d="M39.9196 20.3003C39.9507 20.3314 39.9754 20.369 39.9935 20.4131C40.0143 20.4546 40.0246 20.5038 40.0246 20.5609L39.9974 21.6304C39.4711 21.7004 38.959 21.6394 38.4612 21.4476C37.9686 21.2557 37.4877 20.9251 37.0184 20.4559C36.588 20.0255 36.2743 19.5665 36.0772 19.0791C35.8853 18.5917 35.7985 18.1004 35.8166 17.6052C35.84 17.1099 35.9644 16.6225 36.19 16.1429C36.4182 15.6606 36.7396 15.2121 37.1545 14.7972C37.5771 14.3746 38.0334 14.0557 38.5234 13.8405C39.0161 13.6227 39.5152 13.5099 40.0207 13.5022C40.5263 13.4944 41.0241 13.5929 41.5142 13.7977C42.0042 14.0026 42.4579 14.3137 42.8753 14.7311C43.0879 14.9437 43.2681 15.1628 43.4159 15.3884C43.5689 15.6139 43.6933 15.8421 43.7893 16.0729C43.8878 16.301 43.9591 16.5305 44.0032 16.7612C44.0472 16.992 44.068 17.2149 44.0654 17.4301L43.027 17.5818C42.9622 17.5896 42.8948 17.5896 42.8248 17.5818C42.7574 17.5714 42.6887 17.5313 42.6187 17.4613C42.572 17.4146 42.5383 17.3601 42.5175 17.2979C42.4968 17.2357 42.4773 17.167 42.4592 17.0918C42.4436 17.014 42.4242 16.9297 42.4009 16.839C42.3827 16.7483 42.349 16.6497 42.2997 16.5434C42.2557 16.4371 42.1922 16.3218 42.1092 16.1973C42.0288 16.0754 41.9199 15.9458 41.7825 15.8084C41.5647 15.5906 41.3249 15.4312 41.063 15.33C40.8037 15.2315 40.5302 15.1939 40.2424 15.2173C39.9598 15.2406 39.6694 15.3287 39.3713 15.4817C39.0783 15.6347 38.7879 15.8551 38.5001 16.1429C38.2097 16.4332 37.9906 16.7301 37.8429 17.0335C37.6977 17.3394 37.6147 17.6376 37.594 17.9279C37.5784 18.2183 37.6212 18.4945 37.7223 18.7563C37.8234 19.0182 37.9777 19.2528 38.1851 19.4602C38.3044 19.5795 38.4184 19.6832 38.5273 19.7714C38.6388 19.8569 38.7503 19.9295 38.8618 19.9892C38.9759 20.0462 39.0925 20.0903 39.2118 20.1214C39.3337 20.1499 39.4685 20.1681 39.6163 20.1758C39.6733 20.181 39.7278 20.194 39.7796 20.2147C39.8341 20.2329 39.8807 20.2614 39.9196 20.3003ZM44.892 23.8726L45.9187 21.7958C45.9784 21.6584 46.0523 21.5016 46.1404 21.3252C46.2311 21.1463 46.3323 20.9571 46.4438 20.7574C46.2467 20.8767 46.0587 20.9817 45.8798 21.0725C45.7009 21.1632 45.5428 21.2384 45.4054 21.298L43.3403 22.3209L44.892 23.8726ZM44.8142 28.1273L43.7953 27.1083C43.6812 26.9942 43.6151 26.8763 43.5969 26.7544C43.5814 26.63 43.5969 26.5081 43.6436 26.3888L44.297 25.0665L42.1424 22.912L40.8201 23.5654C40.719 23.6094 40.601 23.6237 40.4662 23.6081C40.3366 23.5926 40.2173 23.5304 40.1084 23.4215L39.0817 22.3947L46.9416 18.9218L48.2872 20.2674L44.8142 28.1273ZM55.8743 27.8545L50.2079 33.5209L49.5234 32.8365C49.4223 32.7353 49.3523 32.6342 49.3134 32.5331C49.2797 32.432 49.2693 32.3075 49.2823 32.1598L49.9901 26.1083C49.8994 26.2198 49.8073 26.3248 49.714 26.4234C49.6258 26.5219 49.5403 26.6126 49.4573 26.6956L46.4199 29.733L45.261 28.574L50.9274 22.9076L51.6196 23.5999C51.6767 23.6569 51.7221 23.7075 51.7558 23.7515C51.7895 23.7956 51.8141 23.841 51.8297 23.8877C51.8478 23.9317 51.8582 23.981 51.8608 24.0355C51.8634 24.0899 51.8608 24.1573 51.853 24.2377L51.1452 30.3358C51.2411 30.2139 51.337 30.0998 51.433 29.9935C51.5315 29.8846 51.6261 29.7848 51.7169 29.6941L54.7154 26.6956L55.8743 27.8545ZM56.5926 36.9732C56.6237 37.0043 56.6483 37.0419 56.6665 37.086C56.6872 37.1275 56.6976 37.1768 56.6976 37.2338L56.6704 38.3033C56.144 38.3733 55.632 38.3124 55.1342 38.1205C54.6415 37.9287 54.1606 37.5981 53.6913 37.1288C53.2609 36.6984 52.9472 36.2395 52.7502 35.7521C52.5583 35.2646 52.4714 34.7733 52.4896 34.2781C52.5129 33.7829 52.6374 33.2955 52.8629 32.8158C53.0911 32.3335 53.4126 31.885 53.8274 31.4702C54.25 31.0476 54.7064 30.7287 55.1964 30.5135C55.689 30.2957 56.1881 30.1829 56.6937 30.1751C57.1993 30.1673 57.6971 30.2659 58.1871 30.4707C58.6771 30.6755 59.1308 30.9866 59.5483 31.4041C59.7609 31.6167 59.9411 31.8357 60.0889 32.0613C60.2418 32.2869 60.3663 32.515 60.4622 32.7458C60.5607 32.974 60.632 33.2034 60.6761 33.4342C60.7202 33.6649 60.7409 33.8879 60.7383 34.1031L59.7 34.2548C59.6351 34.2625 59.5677 34.2625 59.4977 34.2548C59.4303 34.2444 59.3616 34.2042 59.2916 34.1342C59.2449 34.0875 59.2112 34.0331 59.1905 33.9709C59.1697 33.9086 59.1503 33.8399 59.1321 33.7647C59.1166 33.687 59.0971 33.6027 59.0738 33.5119C59.0557 33.4212 59.022 33.3227 58.9727 33.2164C58.9286 33.1101 58.8651 32.9947 58.7821 32.8702C58.7018 32.7484 58.5929 32.6187 58.4554 32.4813C58.2377 32.2635 57.9978 32.1041 57.736 32.003C57.4767 31.9045 57.2032 31.8669 56.9154 31.8902C56.6328 31.9135 56.3424 32.0017 56.0442 32.1547C55.7512 32.3076 55.4608 32.528 55.1731 32.8158C54.8827 33.1062 54.6636 33.403 54.5158 33.7064C54.3706 34.0123 54.2876 34.3105 54.2669 34.6009C54.2513 34.8913 54.2941 35.1674 54.3952 35.4293C54.4964 35.6911 54.6506 35.9258 54.858 36.1332C54.9773 36.2525 55.0914 36.3562 55.2003 36.4443C55.3118 36.5299 55.4233 36.6025 55.5347 36.6621C55.6488 36.7191 55.7655 36.7632 55.8848 36.7943C56.0066 36.8229 56.1414 36.841 56.2892 36.8488C56.3463 36.854 56.4007 36.8669 56.4526 36.8877C56.507 36.9058 56.5537 36.9343 56.5926 36.9732ZM62.3817 36.3842L61.0594 37.7065L62.8406 39.4877L61.8683 40.46L60.0871 38.6788L58.7376 40.0283L61.0633 42.354L60.0521 43.3651L56.4041 39.7172L62.0705 34.0508L65.7185 37.6987L64.7073 38.7099L62.3817 36.3842ZM65.3276 46.5405L64.2775 47.5906L60.8629 44.1759L66.5293 38.5095L67.8438 39.8241L63.2275 44.4404L65.3276 46.5405ZM69.4142 50.6271L68.3641 51.6771L64.9495 48.2625L70.6159 42.5961L71.9304 43.9106L67.3141 48.527L69.4142 50.6271ZM75.0136 49.0162L73.6913 50.3384L75.4725 52.1196L74.5002 53.0919L72.719 51.3107L71.3695 52.6602L73.6952 54.9859L72.684 55.9971L69.0361 52.3491L74.7025 46.6827L78.3504 50.3307L77.3393 51.3418L75.0136 49.0162ZM81.4714 59.1141C81.0617 59.5238 80.6119 59.831 80.1219 60.0358C79.637 60.2406 79.1392 60.3418 78.6284 60.3392C78.1203 60.334 77.6134 60.2212 77.1078 60.0008C76.6074 59.7804 76.1368 59.4499 75.6961 59.0091L73.4948 56.8079L79.1612 51.1415L81.3625 53.3427C81.8032 53.7835 82.1325 54.2553 82.3503 54.7583C82.5707 55.2639 82.6835 55.7708 82.6886 56.279C82.6938 56.7871 82.5927 57.2849 82.3853 57.7724C82.1831 58.2598 81.8784 58.7071 81.4714 59.1141ZM80.1257 57.7685C80.4058 57.4885 80.6222 57.1994 80.7752 56.9012C80.9282 56.6031 81.0137 56.3075 81.0319 56.0145C81.0552 55.7215 81.0099 55.435 80.8958 55.155C80.7843 54.8724 80.6028 54.6054 80.3513 54.3539L79.4724 53.4749L75.8283 57.119L76.7072 57.9979C76.9587 58.2494 77.2245 58.4322 77.5045 58.5463C77.7871 58.6578 78.0736 58.7032 78.364 58.6824C78.6596 58.6617 78.9564 58.5748 79.2546 58.4219C79.5527 58.2689 79.8431 58.0511 80.1257 57.7685Z" fill="white"/>
</g>
<defs>
<clipPath id="clip0_54_7988">
<rect width="96" height="96" fill="white"/>
</clipPath>
</defs>
</svg>
