<svg width="22" height="19" viewBox="0 0 22 19" fill="none" xmlns="http://www.w3.org/2000/svg">
<path d="M1 4.88889L4.0243 7.40911C4.22398 7.57556 4.47568 7.66667 4.73561 7.66667H17.2643C17.5243 7.66667 17.776 7.57556 17.9757 7.40911L21 4.88889M4.88889 11.5556H4.9M17.1111 11.5556H17.1222M6.73406 1H15.266C16.0634 1 16.7998 1.4273 17.1953 2.11969L20.4144 7.753C20.7981 8.42455 21 9.18455 21 9.95811V16.5556C21 17.1692 20.5026 17.6667 19.8889 17.6667H18.7778C18.1641 17.6667 17.6667 17.1692 17.6667 16.5556V15.4444H4.33333V16.5556C4.33333 17.1692 3.83587 17.6667 3.22222 17.6667H2.11111C1.49747 17.6667 1 17.1692 1 16.5556V9.95811C1 9.18455 1.20184 8.42455 1.58559 7.753L4.80462 2.11969C5.20027 1.4273 5.93659 1 6.73406 1ZM5.44444 11.5556C5.44444 11.8623 5.19571 12.1111 4.88889 12.1111C4.58207 12.1111 4.33333 11.8623 4.33333 11.5556C4.33333 11.2488 4.58207 11 4.88889 11C5.19571 11 5.44444 11.2488 5.44444 11.5556ZM17.6667 11.5556C17.6667 11.8623 17.4179 12.1111 17.1111 12.1111C16.8043 12.1111 16.5556 11.8623 16.5556 11.5556C16.5556 11.2488 16.8043 11 17.1111 11C17.4179 11 17.6667 11.2488 17.6667 11.5556Z" stroke="#007BFF" stroke-width="2" stroke-linecap="round" stroke-linejoin="round"/>
</svg>
