<svg width="96" height="96" viewBox="0 0 96 96" fill="none" xmlns="http://www.w3.org/2000/svg">
<g clip-path="url(#clip0_54_7963)">
<path d="M91.3098 96V86.6353L96 81.9451V91.3098L91.3098 96ZM0 4.6902L4.6902 0H14.0549L9.36471 4.6902H0Z" fill="#036825"/>
<path d="M4.69019 0H40.9882L96 55.0275V91.3255L4.69019 0Z" fill="#009732"/>
<path d="M38.7461 19.1267C38.7772 19.1578 38.8018 19.1954 38.82 19.2395C38.8407 19.281 38.8511 19.3303 38.8511 19.3873L38.8238 20.4568C38.2975 20.5268 37.7855 20.4659 37.2877 20.274C36.795 20.0821 36.3141 19.7516 35.8448 19.2823C35.4144 18.8519 35.1007 18.393 34.9036 17.9056C34.7118 17.4181 34.6249 16.9268 34.6431 16.4316C34.6664 15.9364 34.7909 15.4489 35.0164 14.9693C35.2446 14.487 35.5661 14.0385 35.9809 13.6237C36.4035 13.2011 36.8599 12.8821 37.3499 12.667C37.8425 12.4492 38.3416 12.3364 38.8472 12.3286C39.3528 12.3208 39.8506 12.4193 40.3406 12.6242C40.8306 12.829 41.2843 13.1401 41.7018 13.5576C41.9144 13.7702 42.0946 13.9892 42.2424 14.2148C42.3953 14.4404 42.5198 14.6685 42.6157 14.8993C42.7142 15.1274 42.7855 15.3569 42.8296 15.5877C42.8737 15.8184 42.8944 16.0414 42.8918 16.2566L41.8534 16.4083C41.7886 16.416 41.7212 16.416 41.6512 16.4083C41.5838 16.3979 41.5151 16.3577 41.4451 16.2877C41.3984 16.241 41.3647 16.1866 41.344 16.1244C41.3232 16.0621 41.3038 15.9934 41.2856 15.9182C41.2701 15.8404 41.2506 15.7562 41.2273 15.6654C41.2092 15.5747 41.1754 15.4762 41.1262 15.3699C41.0821 15.2636 41.0186 15.1482 40.9356 15.0237C40.8552 14.9019 40.7464 14.7722 40.6089 14.6348C40.3911 14.417 40.1513 14.2576 39.8895 14.1565C39.6302 14.0579 39.3567 14.0204 39.0689 14.0437C38.7863 14.067 38.4959 14.1552 38.1977 14.3081C37.9047 14.4611 37.6143 14.6815 37.3265 14.9693C37.0362 15.2597 36.8171 15.5565 36.6693 15.8599C36.5241 16.1658 36.4411 16.464 36.4204 16.7544C36.4048 17.0448 36.4476 17.3209 36.5487 17.5828C36.6498 17.8446 36.8041 18.0793 37.0115 18.2867C37.1308 18.4059 37.2449 18.5097 37.3538 18.5978C37.4653 18.6834 37.5767 18.756 37.6882 18.8156C37.8023 18.8726 37.919 18.9167 38.0383 18.9478C38.1601 18.9763 38.2949 18.9945 38.4427 19.0023C38.4998 19.0075 38.5542 19.0204 38.6061 19.0412C38.6605 19.0593 38.7072 19.0878 38.7461 19.1267ZM46.825 24.4678C46.4154 24.8774 45.963 25.1873 45.4677 25.3973C44.9751 25.6099 44.4695 25.7188 43.951 25.724C43.435 25.7265 42.9217 25.6202 42.4109 25.4051C41.9027 25.1924 41.4283 24.8658 40.9875 24.425C40.5468 23.9842 40.2188 23.5085 40.0036 22.9977C39.7884 22.4869 39.6808 21.9723 39.6808 21.4537C39.686 20.9352 39.7936 20.4283 40.0036 19.9331C40.2162 19.4405 40.5273 18.9894 40.937 18.5797C41.3466 18.1701 41.7977 17.8589 42.2904 17.6463C42.7856 17.4363 43.2912 17.33 43.8071 17.3274C44.3256 17.3274 44.8403 17.435 45.3511 17.6502C45.8618 17.8654 46.3376 18.1934 46.7784 18.6341C47.2191 19.0749 47.5445 19.5507 47.7545 20.0614C47.9697 20.5722 48.076 21.0856 48.0734 21.6015C48.0708 22.1175 47.9632 22.6218 47.7506 23.1144C47.5406 23.6096 47.2321 24.0607 46.825 24.4678ZM45.4794 23.1222C45.7594 22.8421 45.9746 22.5543 46.125 22.2588C46.278 21.9606 46.3635 21.665 46.3817 21.3721C46.4024 21.0817 46.3558 20.7965 46.2417 20.5165C46.1276 20.2365 45.9448 19.9707 45.6933 19.7192C45.4392 19.4651 45.1709 19.2797 44.8883 19.1631C44.6083 19.049 44.3218 19.001 44.0288 19.0192C43.7384 19.0399 43.4441 19.1268 43.146 19.2797C42.8504 19.4301 42.5626 19.6453 42.2826 19.9253C42 20.2079 41.7822 20.4983 41.6292 20.7965C41.4788 21.0921 41.3933 21.385 41.3725 21.6754C41.3544 21.9684 41.4024 22.2549 41.5164 22.5349C41.6357 22.8149 41.8224 23.082 42.0765 23.3361C42.328 23.5875 42.5924 23.7716 42.8698 23.8883C43.1498 24.0024 43.435 24.0491 43.7254 24.0283C44.0184 24.0102 44.3127 23.9259 44.6083 23.7755C44.9064 23.6226 45.1968 23.4048 45.4794 23.1222ZM55.3768 27.357L49.7104 33.0234L49.0259 32.3389C48.9248 32.2378 48.8548 32.1367 48.8159 32.0356C48.7822 31.9345 48.7718 31.81 48.7848 31.6622L49.4926 25.6108C49.4018 25.7223 49.3098 25.8273 49.2165 25.9258C49.1283 26.0243 49.0427 26.1151 48.9598 26.1981L45.9224 29.2354L44.7635 28.0765L50.4299 22.4101L51.1221 23.1023C51.1792 23.1594 51.2245 23.2099 51.2582 23.254C51.2919 23.2981 51.3166 23.3435 51.3321 23.3901C51.3503 23.4342 51.3606 23.4835 51.3632 23.5379C51.3658 23.5924 51.3632 23.6598 51.3555 23.7402L50.6476 29.8382C50.7436 29.7164 50.8395 29.6023 50.9354 29.496C51.034 29.3871 51.1286 29.2873 51.2193 29.1965L54.2178 26.1981L55.3768 27.357ZM56.7873 30.7899L55.3522 32.2249L57.289 34.1617L56.2739 35.1767L54.3372 33.24L52.1321 35.4451L50.8098 34.1228L56.4762 28.4564L60.1241 32.1044L59.113 33.1155L56.7873 30.7899ZM56.5377 39.8507L55.2154 38.5284L60.8818 32.862L62.2041 34.1843L56.5377 39.8507ZM62.4767 39.7849C62.6556 39.9638 62.8293 40.0935 62.9978 40.1739C63.1715 40.2542 63.3387 40.2944 63.4995 40.2944C63.6602 40.2944 63.8119 40.2594 63.9545 40.1894C64.0997 40.1168 64.2345 40.0183 64.359 39.8938C64.6079 39.6449 64.7207 39.3688 64.6973 39.0655C64.6766 38.7647 64.4964 38.4445 64.1568 38.1049L63.6278 37.5759L61.9478 39.256L62.4767 39.7849ZM62.2667 45.5797L61.0766 44.3896C60.8562 44.1692 60.781 43.9281 60.851 43.6663L61.555 41.08C61.5809 40.9659 61.5822 40.8661 61.5588 40.7806C61.5381 40.6924 61.4772 40.5978 61.3761 40.4967L61.0416 40.1622L58.9454 42.2584L57.6309 40.9439L63.2973 35.2775L65.1407 37.1209C65.5503 37.5306 65.8563 37.9221 66.0585 38.2954C66.2659 38.6688 66.3852 39.0214 66.4163 39.3533C66.45 39.6877 66.4059 39.9988 66.2841 40.2866C66.1622 40.5744 65.9807 40.8389 65.7396 41.08C65.5555 41.2641 65.3572 41.4132 65.1446 41.5273C64.932 41.6413 64.7077 41.7204 64.4718 41.7645C64.2384 41.806 63.996 41.8099 63.7445 41.7762C63.4956 41.745 63.2441 41.6725 62.99 41.5584C63.0315 41.688 63.0561 41.8241 63.0639 41.9667C63.0743 42.1067 63.0639 42.2519 63.0328 42.4023L62.2667 45.5797ZM74.7796 46.7598L69.1132 52.4262L67.9543 51.2673L71.2133 48.0082C71.2885 47.9331 71.3715 47.8527 71.4622 47.7671C71.5556 47.6842 71.6528 47.6025 71.7539 47.5221L67.3359 48.93C67.1985 48.974 67.0663 48.9792 66.9392 48.9455C66.8148 48.9144 66.702 48.8483 66.6009 48.7472L66.422 48.5683C66.3208 48.4672 66.2534 48.3531 66.2197 48.226C66.1886 48.1016 66.1951 47.9706 66.2392 47.8332L67.6548 43.4075C67.5692 43.5086 67.4837 43.6071 67.3981 43.703C67.3152 43.7964 67.2361 43.8806 67.1609 43.9558L63.9018 47.2149L62.7429 46.0559L68.4093 40.3895L69.4127 41.3929C69.4697 41.4499 69.5177 41.5005 69.5566 41.5446C69.5981 41.5912 69.6292 41.6379 69.6499 41.6846C69.6706 41.7313 69.6797 41.7818 69.6771 41.8363C69.6797 41.8907 69.6694 41.9555 69.646 42.0307L68.2304 46.3632C68.1837 46.5135 68.1306 46.6652 68.0709 46.8182C68.0139 46.9737 67.9517 47.1293 67.8843 47.2849C68.0424 47.2149 68.1993 47.1488 68.3548 47.0865C68.513 47.0269 68.6686 46.975 68.8215 46.931L73.1384 45.5231C73.2136 45.4998 73.2771 45.4881 73.329 45.4881C73.386 45.4881 73.4379 45.4985 73.4845 45.5192C73.5312 45.54 73.5766 45.5698 73.6207 45.6087C73.6673 45.6502 73.7192 45.6994 73.7762 45.7565L74.7796 46.7598ZM76.1872 50.1897L74.8649 51.512L76.6461 53.2932L75.6738 54.2655L73.8926 52.4843L72.5431 53.8338L74.8688 56.1595L73.8576 57.1706L70.2096 53.5227L75.876 47.8563L79.524 51.5042L78.5128 52.5154L76.1872 50.1897ZM82.6449 60.2877C82.2353 60.6973 81.7854 61.0046 81.2954 61.2094C80.8106 61.4142 80.3128 61.5153 79.802 61.5127C79.2938 61.5075 78.787 61.3948 78.2814 61.1744C77.781 60.954 77.3104 60.6234 76.8696 60.1827L74.6684 57.9814L80.3348 52.315L82.536 54.5163C82.9768 54.957 83.3061 55.4289 83.5239 55.9319C83.7442 56.4375 83.857 56.9444 83.8622 57.4525C83.8674 57.9607 83.7663 58.4585 83.5589 58.9459C83.3566 59.4334 83.052 59.8806 82.6449 60.2877ZM81.2993 58.942C81.5793 58.662 81.7958 58.3729 81.9488 58.0748C82.1018 57.7766 82.1873 57.481 82.2055 57.1881C82.2288 56.8951 82.1834 56.6086 82.0693 56.3286C81.9579 56.046 81.7764 55.7789 81.5249 55.5274L80.6459 54.6485L77.0019 58.2926L77.8808 59.1715C78.1323 59.423 78.398 59.6058 78.6781 59.7199C78.9607 59.8314 79.2472 59.8767 79.5375 59.856C79.8331 59.8352 80.13 59.7484 80.4281 59.5954C80.7263 59.4424 81.0167 59.2247 81.2993 58.942Z" fill="white"/>
</g>
<defs>
<clipPath id="clip0_54_7963">
<rect width="96" height="96" fill="white"/>
</clipPath>
</defs>
</svg>
