<svg width="24" height="24" viewBox="0 0 24 24" fill="none" xmlns="http://www.w3.org/2000/svg">
<path d="M12 1.40625C14.4443 1.40723 16.8131 2.25322 18.7051 3.80085C20.597 5.34849 21.8957 7.50261 22.3812 9.89822C22.8667 12.2938 22.509 14.7836 21.3688 16.9457C20.2287 19.1078 18.3761 20.8092 16.125 21.7617C13.536 22.8557 10.6185 22.8765 8.01424 21.8194C5.40997 20.7623 3.3323 18.714 2.23828 16.125C1.14426 13.536 1.12352 10.6185 2.18061 8.01424C3.2377 5.40997 5.28603 3.3323 7.875 2.23828C9.17996 1.68605 10.583 1.40305 12 1.40625ZM12 0C5.37281 0 0 5.37281 0 12C0 18.6272 5.37281 24 12 24C18.6272 24 24 18.6272 24 12C24 5.37281 18.6272 0 12 0Z" fill="#007BFF"/>
<path d="M15.5238 7.56129L10.4281 12.6561L8.47571 10.7038C8.14174 10.3703 7.68907 10.183 7.21711 10.183C6.74516 10.183 6.29249 10.3703 5.95852 10.7038C5.62505 11.0378 5.43774 11.4904 5.43774 11.9624C5.43774 12.4343 5.62505 12.887 5.95852 13.221L9.05836 16.3208C9.09165 16.3607 9.1268 16.3996 9.1643 16.4371C9.50007 16.7709 9.95432 16.9583 10.4278 16.9583C10.9013 16.9583 11.3556 16.7709 11.6913 16.4371C11.7288 16.3996 11.764 16.3607 11.7973 16.3208L18.041 10.078C18.3745 9.74404 18.5618 9.29138 18.5618 8.81942C18.5618 8.34746 18.3745 7.8948 18.041 7.56083C17.707 7.22741 17.2543 7.0402 16.7823 7.04028C16.3104 7.04037 15.8577 7.22776 15.5238 7.56129Z" fill="#007BFF"/>
</svg>
