<svg width="19" height="25" viewBox="0 0 19 25" fill="none" xmlns="http://www.w3.org/2000/svg">
<path d="M15.9339 2.72065C14.1195 0.907129 11.7423 0 9.36418 0C6.98683 0 4.60876 0.907129 2.7945 2.72065C-0.0970535 5.61221 -0.850081 10.0235 1.0321 13.4079C3.19196 17.2905 9.36418 25 9.36418 25C9.36418 25 15.5371 17.2905 17.697 13.4079C19.5791 10.0235 18.8261 5.61221 15.9339 2.72065ZM9.36418 14.9338C6.24831 14.9338 3.72145 12.4069 3.72145 9.29185C3.72145 6.17373 6.24831 3.64688 9.36418 3.64688C12.4808 3.64688 15.0076 6.17373 15.0076 9.29185C15.0076 12.4069 12.4808 14.9338 9.36418 14.9338Z" fill="#007BFF"/>
</svg>
