<svg width="14" height="18" viewBox="0 0 11 13" fill="none" xmlns="http://www.w3.org/2000/svg">
<path fill-rule="evenodd" clip-rule="evenodd" d="M2.7129 11.414L1.26139 12.1534C1.20497 12.1815 1.138 12.1781 1.08465 12.1446C1.03131 12.111 0.999294 12.0521 1.00017 11.9891V1.53443C0.991458 1.11006 1.32826 0.758917 1.75262 0.749939H9.28288C9.70724 0.758917 10.044 1.11006 10.0353 1.53443V11.9891C10.0362 12.0521 10.0042 12.111 9.9508 12.1446C9.89749 12.1781 9.83054 12.1815 9.77411 12.1534L8.3226 11.414C8.26477 11.3846 8.19552 11.3889 8.14188 11.4255L6.97377 12.2191C6.91332 12.2602 6.8338 12.2602 6.77334 12.2191L5.61838 11.4346C5.55792 11.3934 5.4784 11.3934 5.41794 11.4346L4.26298 12.2191C4.20252 12.2602 4.123 12.2602 4.06254 12.2191L2.89362 11.4288C2.84063 11.3912 2.7713 11.3855 2.7129 11.414Z" stroke="white" stroke-linecap="round" stroke-linejoin="round"/>
<path d="M3.06042 5.67231C2.71639 5.67231 2.4375 5.93561 2.4375 6.26038C2.4375 6.58515 2.71639 6.84844 3.06042 6.84844V5.67231ZM8.04375 6.84844C8.38776 6.84844 8.66667 6.58515 8.66667 6.26038C8.66667 5.93561 8.38776 5.67231 8.04375 5.67231V6.84844ZM3.89097 7.24049C3.54696 7.24049 3.26806 7.50379 3.26806 7.82856C3.26806 8.15333 3.54696 8.41663 3.89097 8.41663V7.24049ZM7.21319 8.41663C7.55721 8.41663 7.83611 8.15333 7.83611 7.82856C7.83611 7.50379 7.55721 7.24049 7.21319 7.24049V8.41663ZM3.89097 4.10413C3.54696 4.10413 3.26806 4.36742 3.26806 4.69219C3.26806 5.01696 3.54696 5.28026 3.89097 5.28026V4.10413ZM7.21319 5.28026C7.55721 5.28026 7.83611 5.01696 7.83611 4.69219C7.83611 4.36742 7.55721 4.10413 7.21319 4.10413V5.28026ZM3.06042 6.84844H8.04375V5.67231H3.06042V6.84844ZM3.89097 8.41663H7.21319V7.24049H3.89097V8.41663ZM3.89097 5.28026H7.21319V4.10413H3.89097V5.28026Z" fill="white"/>
</svg>
