<svg width="30" height="30" top='2' viewBox="0 0 24 24" fill="none" xmlns="http://www.w3.org/2000/svg">
<path fill-rule="evenodd" clip-rule="evenodd" d="M3.74732 4.02878C3.74732 5.95536 5.85173 7.46937 6.95732 9.10622C6.96625 9.11947 6.97997 9.12681 6.99596 9.12681C7.01194 9.12681 7.02567 9.11957 7.03465 9.10632C8.14249 7.47734 10.26 5.99246 10.26 4.02878C10.26 2.23037 8.80205 0.772461 7.00364 0.772461C5.20522 0.772413 3.74732 2.23037 3.74732 4.02878ZM18.7227 20.0419C17.843 20.0419 17.1298 20.755 17.1298 21.6347C17.1298 22.5145 17.843 23.2276 18.7227 23.2276C19.6024 23.2276 20.3156 22.5145 20.3156 21.6347C20.3156 20.755 19.6024 20.0419 18.7227 20.0419ZM18.7227 21.0117C19.0668 21.0117 19.3458 21.2906 19.3458 21.6347C19.3458 21.9789 19.0668 22.2578 18.7227 22.2578C18.3786 22.2578 18.0996 21.9789 18.0996 21.6347C18.0997 21.2906 18.3786 21.0117 18.7227 21.0117ZM4.88228 20.6577C4.8565 20.6577 4.83553 20.6367 4.83553 20.611V18.4298C4.83553 18.2539 4.85559 18.0901 4.89735 17.9325C4.90085 17.9194 4.89884 17.9067 4.89149 17.8953C4.88415 17.8838 4.87345 17.8768 4.86001 17.8745C3.22786 17.5939 1.99493 16.1641 1.99493 14.4763C1.99493 12.5794 3.54586 11.0285 5.44273 11.0285H17.2921C18.8533 11.0285 20.1317 9.75005 20.1317 8.18885C20.1317 6.62765 18.8533 5.34921 17.2921 5.34921H12.428C12.4081 5.34921 12.3912 5.36097 12.3842 5.37964C12.3772 5.39827 12.3824 5.41829 12.3974 5.43134L13.1377 6.07248C13.2643 6.18201 13.2781 6.37349 13.1685 6.50011C13.059 6.62673 12.8675 6.64051 12.7409 6.53097L11.3084 5.29037L11.3071 5.28926C11.1422 5.15664 11.1423 4.93363 11.3071 4.80105L11.3084 4.79995L12.7409 3.55934C12.8676 3.44981 13.059 3.46363 13.1686 3.5902C13.2781 3.71683 13.2643 3.90825 13.1377 4.01784L12.3974 4.65893C12.3823 4.67198 12.3772 4.69195 12.3842 4.71062C12.3912 4.72929 12.4081 4.74105 12.428 4.74105H17.2921C19.189 4.74105 20.7399 6.29193 20.7399 8.18885C20.7399 10.0858 19.1891 11.6366 17.2921 11.6366C13.3423 11.6366 9.39255 11.6366 5.44277 11.6366C3.88162 11.6366 2.60314 12.9151 2.60314 14.4763C2.60314 15.9357 3.72341 17.1566 5.15732 17.3015C5.17594 17.3034 5.19289 17.2948 5.20239 17.2787L6.85162 14.4653C7.2086 13.8563 7.81479 13.509 8.52073 13.509H21.0368C21.5693 13.509 22.0051 13.9448 22.0051 14.4773V20.611C22.0051 20.6368 21.9841 20.6578 21.9583 20.6578H20.7525C20.7345 20.6578 20.719 20.6482 20.7108 20.6321C20.3439 19.9063 19.5914 19.4085 18.7227 19.4085C17.8541 19.4085 17.1016 19.9063 16.7347 20.6321C16.7266 20.6482 16.7111 20.6578 16.693 20.6578H10.1509C10.1329 20.6578 10.1174 20.6482 10.1092 20.6321C9.74237 19.9063 8.98983 19.4085 8.12122 19.4085C7.25257 19.4085 6.50002 19.9063 6.13316 20.6321C6.125 20.6482 6.10954 20.6578 6.09145 20.6578L4.88228 20.6577ZM6.2641 17.62H8.66189C8.95935 17.62 9.20271 17.3766 9.20271 17.0792V15.259C9.20271 14.9615 8.95935 14.7181 8.66189 14.7181H7.55823C7.54114 14.7181 7.5265 14.7265 7.51786 14.7413L5.92916 17.4514C5.91706 17.472 5.92229 17.4982 5.94145 17.5125C6.03173 17.5799 6.14348 17.62 6.2641 17.62ZM10.7149 17.0792C10.7149 17.3766 10.9583 17.62 11.2557 17.62H14.285C14.5825 17.62 14.8259 17.3766 14.8259 17.0792V15.259C14.8259 14.9615 14.5825 14.7181 14.285 14.7181H11.2557C10.9583 14.7181 10.7149 14.9615 10.7149 15.259V17.0792ZM16.3381 17.0792C16.3381 17.3766 16.5814 17.62 16.8789 17.62H19.9082C20.2057 17.62 20.449 17.3766 20.449 17.0792V15.259C20.449 14.9615 20.2057 14.7181 19.9082 14.7181H16.8789C16.5814 14.7181 16.3381 14.9615 16.3381 15.259V17.0792ZM5.95666 22.1569C5.89498 21.9006 5.87919 21.6342 5.91068 21.3696C5.91231 21.3559 5.90842 21.3434 5.89921 21.3331C5.88999 21.3227 5.87809 21.3174 5.86421 21.3174H4.88986C4.87594 21.3174 4.86394 21.3228 4.85473 21.3333C4.84551 21.3437 4.84167 21.3563 4.84345 21.3701C4.90465 21.8448 5.31313 22.2147 5.80378 22.2147H5.91116C5.92599 22.2147 5.93871 22.2085 5.94788 22.1969C5.95709 22.1852 5.96012 22.1713 5.95666 22.1569ZM20.949 21.6347C20.949 21.8146 20.9276 21.9894 20.8873 22.1569C20.8838 22.1713 20.8868 22.1852 20.896 22.1968C20.9052 22.2084 20.9179 22.2146 20.9327 22.2146H21.0367C21.5274 22.2146 21.9358 21.8447 21.9971 21.3701C21.9988 21.3563 21.995 21.3437 21.9858 21.3332C21.9766 21.3228 21.9646 21.3173 21.9506 21.3173H20.9797C20.9658 21.3173 20.9539 21.3227 20.9447 21.333C20.9354 21.3434 20.9316 21.3559 20.9332 21.3696C20.9436 21.4566 20.949 21.545 20.949 21.6347ZM10.3475 21.6347C10.3475 21.8146 10.3261 21.9894 10.2857 22.1569C10.2823 22.1713 10.2853 22.1852 10.2945 22.1968C10.3036 22.2084 10.3164 22.2146 10.3312 22.2146H16.5127C16.5275 22.2146 16.5402 22.2084 16.5494 22.1968C16.5586 22.1852 16.5616 22.1713 16.5581 22.1569C16.4965 21.9007 16.4807 21.6341 16.5121 21.3696C16.5138 21.3559 16.5099 21.3434 16.5007 21.3331C16.4915 21.3227 16.4796 21.3174 16.4657 21.3174H10.3782C10.3643 21.3174 10.3524 21.3227 10.3432 21.3331C10.334 21.3435 10.3301 21.356 10.3317 21.3697C10.3421 21.4566 10.3475 21.545 10.3475 21.6347ZM6.52829 21.6347C6.52829 22.5145 7.24148 23.2276 8.12122 23.2276C9.00097 23.2276 9.71415 22.5145 9.71415 21.6347C9.71415 20.755 9.00097 20.0419 8.12122 20.0419C7.24143 20.0419 6.52829 20.755 6.52829 21.6347ZM8.74426 21.6347C8.74426 21.9789 8.46529 22.2578 8.12117 22.2578C7.77706 22.2578 7.49809 21.9789 7.49809 21.6347C7.49809 21.2906 7.77701 21.0117 8.12117 21.0117C8.46529 21.0117 8.74426 21.2906 8.74426 21.6347ZM8.27132 4.16582C8.27132 4.86595 7.70377 5.4335 7.00364 5.4335C6.30351 5.4335 5.73596 4.86595 5.73596 4.16582C5.73596 3.46569 6.30351 2.89814 7.00364 2.89814C7.70377 2.89814 8.27132 3.46569 8.27132 4.16582Z" fill="#007BFF"/>
</svg>
