<svg width="10" height="13" viewBox="0 0 8 11" fill="none" xmlns="http://www.w3.org/2000/svg">
<path d="M6.74679 1.19709C5.97856 0.399137 4.97196 0 3.96502 0C2.9584 0 1.95146 0.399137 1.18326 1.19709C-0.0410948 2.46937 -0.359945 4.41036 0.437015 5.89948C1.35155 7.60781 3.96502 11 3.96502 11C3.96502 11 6.5788 7.60781 7.49334 5.89948C8.29028 4.41033 7.97143 2.46937 6.74679 1.19709ZM3.96502 6.57087C2.64569 6.57087 1.57575 5.45905 1.57575 4.08841C1.57575 2.71644 2.64569 1.60463 3.96502 1.60463C5.28467 1.60463 6.3546 2.71644 6.3546 4.08841C6.3546 5.45905 5.28467 6.57087 3.96502 6.57087Z" fill="#525F7F"/>
</svg>
