<svg width="22" height="26" viewBox="0 0 22 27" fill="none" xmlns="http://www.w3.org/2000/svg">
<path fill-rule="evenodd" clip-rule="evenodd" d="M5.14639 23.7555L2.11716 25.2984C1.99942 25.3571 1.85965 25.35 1.74832 25.2801C1.63699 25.21 1.57018 25.0871 1.572 24.9556V3.13719C1.55383 2.25157 2.25672 1.51874 3.14233 1.5H18.8577C19.7433 1.51874 20.4462 2.25157 20.428 3.13719V24.9556C20.4299 25.0871 20.363 25.21 20.2516 25.2801C20.1403 25.35 20.0006 25.3571 19.8828 25.2984L16.8536 23.7555C16.7329 23.694 16.5884 23.7031 16.4765 23.7795L14.0387 25.4356C13.9125 25.5215 13.7465 25.5215 13.6204 25.4356L11.21 23.7984C11.0838 23.7125 10.9179 23.7125 10.7917 23.7984L8.38135 25.4356C8.25517 25.5215 8.08923 25.5215 7.96305 25.4356L5.52355 23.7864C5.41297 23.7079 5.26828 23.6959 5.14639 23.7555Z" stroke="#2C3552" stroke-width="2" stroke-linecap="round" stroke-linejoin="round"/>
<path d="M5.85546 12.2148C5.14536 12.2148 4.5697 12.7905 4.5697 13.5006C4.5697 14.2106 5.14536 14.7863 5.85546 14.7863V12.2148ZM16.1415 14.7863C16.8516 14.7863 17.4272 14.2106 17.4272 13.5006C17.4272 12.7905 16.8516 12.2148 16.1415 12.2148V14.7863ZM7.56979 15.6435C6.85971 15.6435 6.28404 16.2192 6.28404 16.9292C6.28404 17.6393 6.85971 18.215 7.56979 18.215V15.6435ZM14.4271 18.215C15.1372 18.215 15.7129 17.6393 15.7129 16.9292C15.7129 16.2192 15.1372 15.6435 14.4271 15.6435V18.215ZM7.56979 8.78613C6.85971 8.78613 6.28404 9.36179 6.28404 10.0719C6.28404 10.782 6.85971 11.3576 7.56979 11.3576V8.78613ZM14.4271 11.3576C15.1372 11.3576 15.7129 10.782 15.7129 10.0719C15.7129 9.36179 15.1372 8.78613 14.4271 8.78613V11.3576ZM5.85546 14.7863H16.1415V12.2148H5.85546V14.7863ZM7.56979 18.215H14.4271V15.6435H7.56979V18.215ZM7.56979 11.3576H14.4271V8.78613H7.56979V11.3576Z" fill="#2C3552"/>
</svg>
