<svg width="22" height="26" viewBox="0 0 22 27" fill="none" xmlns="http://www.w3.org/2000/svg">
<path fill-rule="evenodd" clip-rule="evenodd" d="M5.35733 23.7555L2.3281 25.2984C2.21036 25.3571 2.07059 25.35 1.95926 25.2801C1.84793 25.21 1.78112 25.0871 1.78294 24.9556V3.13719C1.76477 2.25157 2.46766 1.51874 3.35327 1.5H19.0686C19.9542 1.51874 20.6571 2.25157 20.6389 3.13719V24.9556C20.6408 25.0871 20.574 25.21 20.4625 25.2801C20.3513 25.35 20.2116 25.3571 20.0938 25.2984L17.0645 23.7555C16.9439 23.694 16.7993 23.7031 16.6874 23.7795L14.2496 25.4356C14.1234 25.5215 13.9575 25.5215 13.8313 25.4356L11.4209 23.7984C11.2948 23.7125 11.1288 23.7125 11.0026 23.7984L8.59229 25.4356C8.46611 25.5215 8.30016 25.5215 8.17399 25.4356L5.73449 23.7864C5.62391 23.7079 5.47922 23.6959 5.35733 23.7555Z" stroke="#0066FF" stroke-width="2" stroke-linecap="round" stroke-linejoin="round"/>
<path d="M6.06639 12.2148C5.3563 12.2148 4.78064 12.7905 4.78064 13.5006C4.78064 14.2106 5.3563 14.7863 6.06639 14.7863V12.2148ZM16.3524 14.7863C17.0625 14.7863 17.6382 14.2106 17.6382 13.5006C17.6382 12.7905 17.0625 12.2148 16.3524 12.2148V14.7863ZM7.78073 15.6435C7.07065 15.6435 6.49498 16.2192 6.49498 16.9292C6.49498 17.6393 7.07065 18.215 7.78073 18.215V15.6435ZM14.6381 18.215C15.3482 18.215 15.9238 17.6393 15.9238 16.9292C15.9238 16.2192 15.3482 15.6435 14.6381 15.6435V18.215ZM7.78073 8.78613C7.07065 8.78613 6.49498 9.36179 6.49498 10.0719C6.49498 10.782 7.07065 11.3576 7.78073 11.3576V8.78613ZM14.6381 11.3576C15.3482 11.3576 15.9238 10.782 15.9238 10.0719C15.9238 9.36179 15.3482 8.78613 14.6381 8.78613V11.3576ZM6.06639 14.7863H16.3524V12.2148H6.06639V14.7863ZM7.78073 18.215H14.6381V15.6435H7.78073V18.215ZM7.78073 11.3576H14.6381V8.78613H7.78073V11.3576Z" fill="#0066FF"/>
</svg>
