<svg width="96" height="96" viewBox="0 0 96 96" fill="none" xmlns="http://www.w3.org/2000/svg">
<g clip-path="url(#clip0_54_7955)">
<path d="M91.3098 96V86.6353L96 81.9451V91.3098L91.3098 96ZM0 4.6902L4.6902 0H14.0549L9.36471 4.6902H0Z" fill="#0560C1"/>
<path d="M4.69019 0H40.9882L96 55.0275V91.3255L4.69019 0Z" fill="#007BFF"/>
<path d="M44.1829 21.7245C44.5252 22.0668 44.8531 22.2314 45.1669 22.2185C45.4806 22.2055 45.7839 22.0525 46.0769 21.7595C46.2065 21.6299 46.3051 21.4925 46.3725 21.3473C46.4399 21.2021 46.471 21.0517 46.4658 20.8962C46.4658 20.7406 46.4256 20.5812 46.3452 20.4178C46.2675 20.2571 46.1456 20.0937 45.9797 19.9278L45.2952 19.2433L43.4984 21.0401L44.1829 21.7245ZM46.9636 18.9438C47.3629 19.3431 47.6572 19.7333 47.8464 20.1145C48.0409 20.4956 48.1472 20.8612 48.1653 21.2112C48.1861 21.5638 48.1277 21.897 47.9903 22.2107C47.8529 22.5244 47.6533 22.8122 47.3914 23.0741C47.1088 23.3567 46.8042 23.5706 46.4775 23.7158C46.1508 23.861 45.8099 23.9245 45.4546 23.9063C45.0994 23.8882 44.73 23.7832 44.3463 23.5913C43.9677 23.3994 43.5827 23.1078 43.1912 22.7163L42.5067 22.0318L40.6127 23.9258L39.2982 22.6113L44.9646 16.9449L46.9636 18.9438ZM50.2207 24.2232L48.8984 25.5455L50.6796 27.3267L49.7073 28.299L47.9261 26.5178L46.5766 27.8673L48.9023 30.193L47.8911 31.2041L44.2431 27.5562L49.9095 21.8898L53.5575 25.5377L52.5463 26.5489L50.2207 24.2232ZM59.3152 31.2955L53.6488 36.9619L52.9644 36.2774C52.8632 36.1763 52.7932 36.0752 52.7543 35.974C52.7206 35.8729 52.7103 35.7485 52.7232 35.6007L53.431 29.5493C53.3403 29.6608 53.2483 29.7658 53.1549 29.8643C53.0668 29.9628 52.9812 30.0536 52.8982 30.1365L49.8609 33.1739L48.7019 32.0149L54.3683 26.3485L55.0606 27.0408C55.1176 27.0978 55.163 27.1484 55.1967 27.1925C55.2304 27.2366 55.255 27.2819 55.2706 27.3286C55.2887 27.3727 55.2991 27.4219 55.3017 27.4764C55.3043 27.5308 55.3017 27.5982 55.2939 27.6786L54.5861 33.7767C54.682 33.6548 54.778 33.5408 54.8739 33.4345C54.9724 33.3256 55.0671 33.2258 55.1578 33.135L58.1563 30.1365L59.3152 31.2955ZM62.7247 40.3675C62.3151 40.7771 61.8653 41.0844 61.3752 41.2892C60.8904 41.494 60.3926 41.5951 59.8818 41.5926C59.3737 41.5874 58.8668 41.4746 58.3612 41.2542C57.8608 41.0338 57.3902 40.7033 56.9495 40.2625L54.7482 38.0613L60.4146 32.3949L62.6159 34.5961C63.0566 35.0369 63.3859 35.5087 63.6037 36.0117C63.8241 36.5173 63.9368 37.0242 63.942 37.5323C63.9472 38.0405 63.8461 38.5383 63.6387 39.0258C63.4365 39.5132 63.1318 39.9604 62.7247 40.3675ZM61.3791 39.0219C61.6591 38.7419 61.8756 38.4528 62.0286 38.1546C62.1816 37.8564 62.2671 37.5609 62.2853 37.2679C62.3086 36.9749 62.2632 36.6884 62.1492 36.4084C62.0377 36.1258 61.8562 35.8587 61.6047 35.6072L60.7258 34.7283L57.0817 38.3724L57.9606 39.2513C58.2121 39.5028 58.4779 39.6856 58.7579 39.7997C59.0405 39.9112 59.327 39.9565 59.6174 39.9358C59.9129 39.9151 60.2098 39.8282 60.508 39.6752C60.8061 39.5223 61.0965 39.3045 61.3791 39.0219ZM61.9877 45.3007L60.6654 43.9784L66.3318 38.312L67.6541 39.6343L61.9877 45.3007ZM73.6942 45.6745L68.0278 51.3409L67.3433 50.6564C67.2422 50.5553 67.1722 50.4541 67.1333 50.353C67.0996 50.2519 67.0893 50.1275 67.1022 49.9797L67.81 43.9283C67.7193 44.0397 67.6272 44.1447 67.5339 44.2433C67.4458 44.3418 67.3602 44.4325 67.2772 44.5155L64.2399 47.5529L63.0809 46.3939L68.7473 40.7275L69.4396 41.4198C69.4966 41.4768 69.542 41.5274 69.5757 41.5715C69.6094 41.6155 69.634 41.6609 69.6496 41.7076C69.6677 41.7517 69.6781 41.8009 69.6807 41.8554C69.6833 41.9098 69.6807 41.9772 69.6729 42.0576L68.9651 48.1557C69.061 48.0338 69.157 47.9198 69.2529 47.8135C69.3514 47.7046 69.446 47.6047 69.5368 47.514L72.5353 44.5155L73.6942 45.6745ZM74.7858 52.2264L76.8004 54.2409L74.4086 56.6327C73.9056 56.5549 73.4415 56.3993 73.0163 56.166C72.5937 55.9352 72.2035 55.641 71.8457 55.2832C71.379 54.8165 71.0264 54.3187 70.7879 53.7898C70.5545 53.2608 70.4301 52.7319 70.4145 52.203C70.4015 51.6715 70.4975 51.1556 70.7023 50.6552C70.9097 50.1522 71.2208 49.6933 71.6357 49.2784C72.0583 48.8558 72.5159 48.5382 73.0085 48.3256C73.5037 48.1104 74.0093 48.0041 74.5253 48.0067C75.0438 48.0119 75.5585 48.1273 76.0692 48.3528C76.5826 48.581 77.0674 48.9232 77.5238 49.3795C77.7597 49.6155 77.9619 49.8566 78.1305 50.1029C78.299 50.3492 78.4364 50.5929 78.5427 50.8341C78.6516 51.0778 78.732 51.3189 78.7838 51.5574C78.8357 51.796 78.8642 52.0267 78.8694 52.2497L77.9088 52.448C77.7584 52.4791 77.6249 52.4571 77.5082 52.3819C77.3941 52.3093 77.3163 52.1849 77.2749 52.0086C77.2334 51.8426 77.188 51.691 77.1387 51.5535C77.0947 51.4161 77.0389 51.2852 76.9715 51.1607C76.9041 51.0363 76.8237 50.9144 76.7304 50.7952C76.637 50.6759 76.5243 50.5502 76.392 50.4179C76.1457 50.1716 75.88 49.994 75.5948 49.8851C75.3122 49.7736 75.0218 49.727 74.7236 49.7451C74.428 49.7659 74.1312 49.8501 73.833 49.9979C73.5374 50.1431 73.2535 50.3518 72.9813 50.624C72.6805 50.9248 72.455 51.2333 72.3046 51.5497C72.1542 51.866 72.0739 52.1797 72.0635 52.4908C72.0557 52.8045 72.114 53.1092 72.2385 53.4047C72.3681 53.7003 72.5613 53.9764 72.818 54.2331C72.9761 54.3913 73.1343 54.5183 73.2924 54.6143C73.4532 54.7128 73.6204 54.797 73.7941 54.867L74.6536 54.0076L74.0936 53.4475C74.0106 53.3646 73.9678 53.2777 73.9652 53.187C73.9627 53.0962 73.9951 53.0171 74.0625 52.9497L74.7858 52.2264Z" fill="white"/>
</g>
<defs>
<clipPath id="clip0_54_7955">
<rect width="96" height="96" fill="white"/>
</clipPath>
</defs>
</svg>
