<svg width="30" height="30" viewBox="0 0 24 24" fill="none" xmlns="http://www.w3.org/2000/svg">
<g clip-path="url(#clip0_361_882)">
<path d="M22.752 12.3361L20.88 11.8561L20.016 12.5761C19.968 12.5281 18.288 8.11207 18.336 8.25607C18.096 7.63207 17.472 7.15207 16.8 7.10407C13.92 6.86407 10.992 6.86407 8.11201 7.10407C7.44001 7.15207 6.81601 7.58407 6.57601 8.25607C6.57601 8.30407 4.80001 12.8641 4.89601 12.5761L4.03201 11.8561L2.16001 12.3361C2.01601 12.3841 1.87201 12.5281 1.87201 12.6721V13.1521C1.87201 13.3921 2.01601 13.5841 2.25601 13.6801L4.08001 14.4001L3.84001 14.7361C3.60001 15.1201 3.50401 15.5521 3.50401 15.9841V21.7441C3.50401 22.6081 4.17601 23.2801 5.04001 23.2801H6.24001C7.10401 23.2801 7.77601 22.6081 7.77601 21.7441V20.9281H17.232V21.7441C17.232 22.6081 17.904 23.2801 18.768 23.2801H19.968C20.832 23.2801 21.504 22.6081 21.504 21.7441V15.9841C21.504 15.5521 21.408 15.1201 21.168 14.7361L20.928 14.4001L22.656 13.6801C22.848 13.5841 23.04 13.3921 23.04 13.1521V12.6721C23.04 12.5281 22.944 12.3841 22.752 12.3361ZM7.34401 16.8481L6.62401 18.3361C6.57601 18.4801 6.43201 18.5281 6.33601 18.5281H4.80001C4.60801 18.5281 4.46401 18.3841 4.46401 18.1921V16.7041C4.46401 16.5121 4.60801 16.3681 4.80001 16.3681H7.05601C7.29601 16.3681 7.48801 16.6081 7.34401 16.8481ZM5.66401 13.4881L6.91201 10.2241C10.56 9.93607 13.152 9.84007 17.568 10.1761C17.76 10.1761 17.952 10.2241 18.144 10.2241L19.392 13.4881H18.72C18.48 12.1441 17.328 11.1361 15.936 11.1361C14.544 11.1361 13.392 12.1441 13.152 13.4881H5.66401ZM14.112 13.4881C14.304 12.6721 15.072 12.0961 15.936 12.0961C16.8 12.0961 17.52 12.6721 17.76 13.4881H14.112ZM16.032 18.9121H9.07201C8.83201 18.9121 8.68801 18.6721 8.78401 18.4321L9.74401 16.1761C9.79201 16.0321 9.93601 15.9841 10.032 15.9841H14.976C15.12 15.9841 15.216 16.0801 15.264 16.1761L16.224 18.4321C16.416 18.6721 16.272 18.9121 16.032 18.9121ZM20.544 18.1921C20.544 18.3841 20.4 18.5281 20.208 18.5281H18.672C18.528 18.5281 18.432 18.4321 18.384 18.3361L17.664 16.8481C17.568 16.6081 17.712 16.3681 17.952 16.3681H20.208C20.4 16.3681 20.544 16.5121 20.544 16.7041V18.1921Z" fill="#007BFF"/>
<path d="M5.08801 9.60012C5.18401 9.40812 5.61601 8.30412 5.56801 8.35212C5.52001 8.35212 5.47201 8.40012 5.37601 8.40012C5.13601 8.40012 4.89601 8.20812 4.89601 7.92012V7.68012C4.32001 7.48812 3.84001 6.91212 3.84001 6.24012C3.84001 5.95212 4.08001 5.76012 4.32001 5.76012C4.56001 5.76012 4.80001 5.95212 4.80001 6.24012C4.80001 6.57612 5.04001 6.81612 5.37601 6.81612C5.71201 6.81612 5.95201 6.57612 5.95201 6.24012C5.95201 5.90412 5.71201 5.66412 5.37601 5.66412C4.56001 5.61612 3.84001 4.94412 3.84001 4.08012C3.84001 3.40812 4.27201 2.83212 4.89601 2.64012V2.40012C4.89601 2.16012 5.13601 1.92012 5.37601 1.92012C5.66401 1.92012 5.85601 2.16012 5.85601 2.40012V2.64012C6.48001 2.83212 6.91201 3.40812 6.91201 4.08012C6.91201 4.36812 6.67201 4.56012 6.43201 4.56012C6.19201 4.56012 5.95201 4.36812 5.95201 4.08012C5.95201 3.74412 5.71201 3.50412 5.37601 3.50412C5.04001 3.50412 4.80001 3.74412 4.80001 4.08012C4.80001 4.41612 5.04001 4.65612 5.37601 4.65612C6.24001 4.65612 6.91201 5.32812 6.91201 6.19212C6.91201 6.33612 6.91201 6.43212 6.86401 6.52812C7.20001 6.33612 7.63201 6.19212 8.06401 6.14412C8.59201 6.09612 9.16801 6.04812 9.74401 6.04812C9.79201 5.76012 9.84001 5.42412 9.84001 5.13612C9.84001 2.68812 7.87201 0.672119 5.37601 0.672119C2.92801 0.720119 0.960007 2.68812 0.960007 5.18412C0.960007 7.48812 2.78401 9.45612 5.08801 9.60012Z" fill="#007BFF"/>
</g>
<defs>
<clipPath id="clip0_361_882">
<rect width="30" height="30" fill="white"/>
</clipPath>
</defs>
</svg>
