<svg width="30" height="30" viewBox="0 0 24 24" fill="none" xmlns="http://www.w3.org/2000/svg">
<path d="M5.30682 16.9504C5.61417 16.9504 5.86333 16.7013 5.86333 16.3939C5.86333 16.0866 5.61417 15.8374 5.30682 15.8374C4.99947 15.8374 4.75031 16.0866 4.75031 16.3939C4.75031 16.7013 4.99947 16.9504 5.30682 16.9504Z" fill="white"/>
<path d="M18.3375 16.9504C18.6448 16.9504 18.894 16.7013 18.894 16.3939C18.894 16.0866 18.6448 15.8374 18.3375 15.8374C18.0301 15.8374 17.781 16.0866 17.781 16.3939C17.781 16.7013 18.0301 16.9504 18.3375 16.9504Z" fill="white"/>
<path d="M22.0128 11.3825H18.2574L14.8938 7.71901C14.6478 7.4522 14.2993 7.29897 13.9364 7.29897H12.2493V6.8536H13.697C13.923 6.8536 14.1056 6.67095 14.1056 6.445C14.1056 6.21904 13.923 6.0364 13.697 6.0364H13.5859V3.80912C13.5859 3.09284 13.0028 2.50977 12.2861 2.50977H5.75217C5.03549 2.50977 4.45241 3.09284 4.45241 3.80952V6.0364H4.15577C3.92981 6.0364 3.74717 6.21904 3.74717 6.445C3.74717 6.67095 3.92981 6.8536 4.15577 6.8536H5.64062V7.29897H4.64282C4.19826 7.29897 3.78925 7.52248 3.549 7.89635L1.00668 11.8549L1.00791 11.8557C0.820363 12.0808 0.703094 12.3664 0.703094 12.6819V15.5029C0.703094 16.2195 1.28617 16.8026 2.00285 16.8026H2.78083C2.97737 18.0211 4.0336 18.9559 5.3068 18.9559C6.58 18.9559 7.63623 18.0215 7.83277 16.8026H15.8115C16.008 18.0211 17.0643 18.9559 18.3375 18.9559C19.6107 18.9559 20.6669 18.0215 20.8634 16.8026H22.0128C22.7295 16.8026 23.3126 16.2195 23.3126 15.5029V12.6819C23.3126 11.9652 22.7295 11.3825 22.0128 11.3825ZM6.45782 6.8536H11.4321V7.29897H6.45782V6.8536ZM2.28152 11.3825L4.23708 8.33764C4.32616 8.19912 4.47775 8.11617 4.64282 8.11617H5.26921V11.3825H2.28152ZM5.3068 17.7681C4.54925 17.7681 3.93308 17.1516 3.93308 16.3944C3.93308 15.6373 4.54966 15.0207 5.3068 15.0207C6.06393 15.0207 6.68051 15.6373 6.68051 16.3944C6.68051 17.1516 6.06393 17.7681 5.3068 17.7681ZM6.08641 11.3825V8.11617H10.1324V11.3825H6.08641ZM10.9496 11.3825V8.11617H13.9364C14.0713 8.11617 14.2008 8.17338 14.2919 8.27226L17.1476 11.3825H10.9496ZM18.3371 17.7681C17.5795 17.7681 16.9634 17.1516 16.9634 16.3944C16.9634 15.6373 17.5799 15.0207 18.3371 15.0207C19.0942 15.0207 19.7108 15.6373 19.7108 16.3944C19.7108 17.1516 19.0942 17.7681 18.3371 17.7681Z" fill="white"/>
<path d="M1.45526 20.3032H0.727986C0.526895 20.3032 0.364349 20.4661 0.364349 20.6669C0.364349 20.8676 0.526895 21.0305 0.727986 21.0305H1.45526C1.65635 21.0305 1.81889 20.8676 1.81889 20.6669C1.81889 20.4661 1.65635 20.3032 1.45526 20.3032Z" fill="white"/>
<path d="M4.57235 20.3032H3.84508C3.64399 20.3032 3.48145 20.4661 3.48145 20.6669C3.48145 20.8676 3.64399 21.0305 3.84508 21.0305H4.57235C4.77345 21.0305 4.93599 20.8676 4.93599 20.6669C4.93599 20.4661 4.77345 20.3032 4.57235 20.3032Z" fill="white"/>
<path d="M7.68945 20.3032H6.96218C6.76109 20.3032 6.59854 20.4661 6.59854 20.6669C6.59854 20.8676 6.76109 21.0305 6.96218 21.0305H7.68945C7.89054 21.0305 8.05309 20.8676 8.05309 20.6669C8.05309 20.4661 7.89018 20.3032 7.68945 20.3032Z" fill="white"/>
<path d="M10.8062 20.3032H10.0789C9.87782 20.3032 9.71527 20.4661 9.71527 20.6669C9.71527 20.8676 9.87782 21.0305 10.0789 21.0305H10.8062C11.0073 21.0305 11.1698 20.8676 11.1698 20.6669C11.1698 20.4661 11.0073 20.3032 10.8062 20.3032Z" fill="white"/>
<path d="M13.9229 20.3032H13.1956C12.9945 20.3032 12.832 20.4661 12.832 20.6669C12.832 20.8676 12.9945 21.0305 13.1956 21.0305H13.9229C14.124 21.0305 14.2865 20.8676 14.2865 20.6669C14.2865 20.4661 14.124 20.3032 13.9229 20.3032Z" fill="white"/>
<path d="M17.0396 20.3032H16.3123C16.1112 20.3032 15.9487 20.4661 15.9487 20.6669C15.9487 20.8676 16.1112 21.0305 16.3123 21.0305H17.0396C17.2407 21.0305 17.4032 20.8676 17.4032 20.6669C17.4032 20.4661 17.2407 20.3032 17.0396 20.3032Z" fill="white"/>
<path d="M20.1567 20.3032H19.4294C19.2283 20.3032 19.0658 20.4661 19.0658 20.6669C19.0658 20.8676 19.2283 21.0305 19.4294 21.0305H20.1567C20.3578 21.0305 20.5203 20.8676 20.5203 20.6669C20.5203 20.4661 20.3578 20.3032 20.1567 20.3032Z" fill="white"/>
<path d="M23.2734 20.3032H22.5462C22.3451 20.3032 22.1825 20.4661 22.1825 20.6669C22.1825 20.8676 22.3451 21.0305 22.5462 21.0305H23.2734C23.4745 21.0305 23.6371 20.8676 23.6371 20.6669C23.6371 20.4661 23.4745 20.3032 23.2734 20.3032Z" fill="white"/>
</svg>
