<svg width="30" height="30" viewBox="0 0 24 20" fill="none" xmlns="http://www.w3.org/2000/svg">
<path d="M5.30682 14.9504C5.61417 14.9504 5.86333 14.7013 5.86333 14.3939C5.86333 14.0866 5.61417 13.8374 5.30682 13.8374C4.99947 13.8374 4.75031 14.0866 4.75031 14.3939C4.75031 14.7013 4.99947 14.9504 5.30682 14.9504Z" fill="#007BFF"/>
<path d="M18.3375 14.9504C18.6448 14.9504 18.894 14.7013 18.894 14.3939C18.894 14.0866 18.6448 13.8374 18.3375 13.8374C18.0301 13.8374 17.781 14.0866 17.781 14.3939C17.781 14.7013 18.0301 14.9504 18.3375 14.9504Z" fill="#007BFF"/>
<path d="M22.0128 9.38253H18.2574L14.8938 5.71901C14.6478 5.4522 14.2993 5.29897 13.9364 5.29897H12.2493V4.8536H13.697C13.923 4.8536 14.1056 4.67095 14.1056 4.445C14.1056 4.21904 13.923 4.0364 13.697 4.0364H13.5859V1.80912C13.5859 1.09284 13.0028 0.509766 12.2861 0.509766H5.75217C5.03549 0.509766 4.45241 1.09284 4.45241 1.80952V4.0364H4.15577C3.92981 4.0364 3.74717 4.21904 3.74717 4.445C3.74717 4.67095 3.92981 4.8536 4.15577 4.8536H5.64062V5.29897H4.64282C4.19826 5.29897 3.78925 5.52248 3.549 5.89635L1.00668 9.85487L1.00791 9.85569C0.820363 10.0808 0.703094 10.3664 0.703094 10.6819V13.5029C0.703094 14.2195 1.28617 14.8026 2.00285 14.8026H2.78083C2.97737 16.0211 4.0336 16.9559 5.3068 16.9559C6.58 16.9559 7.63623 16.0215 7.83277 14.8026H15.8115C16.008 16.0211 17.0643 16.9559 18.3375 16.9559C19.6107 16.9559 20.6669 16.0215 20.8634 14.8026H22.0128C22.7295 14.8026 23.3126 14.2195 23.3126 13.5029V10.6819C23.3126 9.96519 22.7295 9.38253 22.0128 9.38253ZM6.45782 4.8536H11.4321V5.29897H6.45782V4.8536ZM2.28152 9.38253L4.23708 6.33764C4.32616 6.19912 4.47775 6.11617 4.64282 6.11617H5.26921V9.38253H2.28152ZM5.3068 15.7681C4.54925 15.7681 3.93308 15.1516 3.93308 14.3944C3.93308 13.6373 4.54966 13.0207 5.3068 13.0207C6.06393 13.0207 6.68051 13.6373 6.68051 14.3944C6.68051 15.1516 6.06393 15.7681 5.3068 15.7681ZM6.08641 9.38253V6.11617H10.1324V9.38253H6.08641ZM10.9496 9.38253V6.11617H13.9364C14.0713 6.11617 14.2008 6.17338 14.2919 6.27226L17.1476 9.38253H10.9496ZM18.3371 15.7681C17.5795 15.7681 16.9634 15.1516 16.9634 14.3944C16.9634 13.6373 17.5799 13.0207 18.3371 13.0207C19.0942 13.0207 19.7108 13.6373 19.7108 14.3944C19.7108 15.1516 19.0942 15.7681 18.3371 15.7681Z" fill="#007BFF"/>
<path d="M1.45526 18.3032H0.727986C0.526895 18.3032 0.364349 18.4661 0.364349 18.6669C0.364349 18.8676 0.526895 19.0305 0.727986 19.0305H1.45526C1.65635 19.0305 1.81889 18.8676 1.81889 18.6669C1.81889 18.4661 1.65635 18.3032 1.45526 18.3032Z" fill="#007BFF"/>
<path d="M4.57235 18.3032H3.84508C3.64399 18.3032 3.48145 18.4661 3.48145 18.6669C3.48145 18.8676 3.64399 19.0305 3.84508 19.0305H4.57235C4.77345 19.0305 4.93599 18.8676 4.93599 18.6669C4.93599 18.4661 4.77345 18.3032 4.57235 18.3032Z" fill="#007BFF"/>
<path d="M7.68945 18.3032H6.96218C6.76109 18.3032 6.59854 18.4661 6.59854 18.6669C6.59854 18.8676 6.76109 19.0305 6.96218 19.0305H7.68945C7.89054 19.0305 8.05309 18.8676 8.05309 18.6669C8.05309 18.4661 7.89018 18.3032 7.68945 18.3032Z" fill="#007BFF"/>
<path d="M10.8062 18.3032H10.0789C9.87782 18.3032 9.71527 18.4661 9.71527 18.6669C9.71527 18.8676 9.87782 19.0305 10.0789 19.0305H10.8062C11.0073 19.0305 11.1698 18.8676 11.1698 18.6669C11.1698 18.4661 11.0073 18.3032 10.8062 18.3032Z" fill="#007BFF"/>
<path d="M13.9229 18.3032H13.1956C12.9945 18.3032 12.832 18.4661 12.832 18.6669C12.832 18.8676 12.9945 19.0305 13.1956 19.0305H13.9229C14.124 19.0305 14.2865 18.8676 14.2865 18.6669C14.2865 18.4661 14.124 18.3032 13.9229 18.3032Z" fill="#007BFF"/>
<path d="M17.0396 18.3032H16.3123C16.1112 18.3032 15.9487 18.4661 15.9487 18.6669C15.9487 18.8676 16.1112 19.0305 16.3123 19.0305H17.0396C17.2407 19.0305 17.4032 18.8676 17.4032 18.6669C17.4032 18.4661 17.2407 18.3032 17.0396 18.3032Z" fill="#007BFF"/>
<path d="M20.1567 18.3032H19.4294C19.2283 18.3032 19.0658 18.4661 19.0658 18.6669C19.0658 18.8676 19.2283 19.0305 19.4294 19.0305H20.1567C20.3578 19.0305 20.5203 18.8676 20.5203 18.6669C20.5203 18.4661 20.3578 18.3032 20.1567 18.3032Z" fill="#007BFF"/>
<path d="M23.2734 18.3032H22.5462C22.3451 18.3032 22.1825 18.4661 22.1825 18.6669C22.1825 18.8676 22.3451 19.0305 22.5462 19.0305H23.2734C23.4745 19.0305 23.6371 18.8676 23.6371 18.6669C23.6371 18.4661 23.4745 18.3032 23.2734 18.3032Z" fill="#007BFF"/>
</svg>
