<svg width="30" height="30" viewBox="0 0 24 25" fill="none" xmlns="http://www.w3.org/2000/svg">
<g clip-path="url(#clip0_397_207)">
<path fill-rule="evenodd" clip-rule="evenodd" d="M4.25203 21.8748C4.22989 21.8748 4.2022 21.8657 4.18006 21.8566C3.95307 21.7654 3.72608 21.6559 3.50463 21.5191C3.333 21.4188 3.24442 21.1086 3.31085 20.8259C3.37729 20.5431 3.56553 20.3972 3.73715 20.5066C3.93092 20.6161 4.13023 20.7164 4.32954 20.7985C4.5067 20.8624 4.61743 21.1542 4.57867 21.4461C4.53992 21.7015 4.40705 21.8748 4.25203 21.8748ZM19.7704 21.8657C19.6209 21.8657 19.4825 21.6924 19.4493 21.4461C19.405 21.1451 19.5157 20.8532 19.6929 20.7894C19.8922 20.7073 20.0915 20.607 20.2852 20.4884C20.4569 20.388 20.6451 20.5249 20.7115 20.8076C20.778 21.0904 20.6894 21.4005 20.5178 21.51C20.3019 21.6468 20.0749 21.7563 19.8479 21.8475C19.8202 21.8566 19.7925 21.8657 19.7704 21.8657ZM1.93784 19.8681C1.86034 19.8681 1.77729 19.8225 1.71639 19.7222C1.54476 19.4668 1.37867 19.184 1.22919 18.8921C1.10739 18.6641 1.124 18.3175 1.26241 18.1259C1.40082 17.9344 1.6112 17.9617 1.72746 18.1898C1.86587 18.4452 2.00982 18.6915 2.1593 18.9195C2.29771 19.1202 2.30324 19.4668 2.18144 19.6857C2.11501 19.8043 2.02643 19.8681 1.93784 19.8681ZM22.079 19.8408C21.9904 19.8408 21.9019 19.7769 21.8354 19.6583C21.7136 19.4394 21.7192 19.0928 21.8576 18.8921C22.007 18.6641 22.151 18.4178 22.2839 18.1533C22.4057 17.9253 22.6105 17.8979 22.7489 18.0894C22.8929 18.2901 22.9095 18.6276 22.7877 18.8648C22.6382 19.1566 22.4776 19.4394 22.306 19.6948C22.2396 19.7951 22.1621 19.8408 22.079 19.8408ZM0.503934 16.256C0.365526 16.256 0.23819 16.1192 0.1939 15.8912C0.116391 15.5263 0.0554913 15.1432 0.0112006 14.7692C-0.0220174 14.4773 0.0942456 14.1855 0.271408 14.1307C0.448571 14.0669 0.625733 14.2584 0.658951 14.5594C0.697706 14.8878 0.753069 15.2253 0.819505 15.5446C0.874868 15.8273 0.786287 16.1374 0.609125 16.2287C0.575907 16.2469 0.537152 16.256 0.503934 16.256ZM23.5019 16.2195C23.4686 16.2195 23.4354 16.2104 23.3967 16.1922C23.225 16.101 23.1309 15.7908 23.1863 15.5081C23.2527 15.1797 23.3081 14.8513 23.3468 14.523C23.3801 14.2219 23.5517 14.0304 23.7288 14.0851C23.9115 14.149 24.0278 14.4317 23.9946 14.7236C23.9503 15.1067 23.8894 15.4807 23.8174 15.8456C23.7731 16.0736 23.6403 16.2195 23.5019 16.2195ZM0.332308 11.9598C0.310163 11.9598 0.288017 11.9598 0.265872 11.9507C0.0887093 11.896 -0.0275537 11.6132 0.00566427 11.3122C0.0499549 10.9382 0.110855 10.5551 0.182827 10.1903C0.23819 9.9075 0.426426 9.75244 0.603588 9.84365C0.775214 9.94399 0.869332 10.245 0.813969 10.5369C0.747533 10.8561 0.69217 11.1845 0.653415 11.522C0.625734 11.7774 0.487325 11.9598 0.332308 11.9598ZM23.6624 11.9233C23.5074 11.9233 23.369 11.7409 23.3413 11.4855C23.3026 11.148 23.2472 10.8196 23.1807 10.5004C23.1254 10.2085 23.214 9.9075 23.3911 9.80717C23.5628 9.70683 23.751 9.86189 23.8064 10.1538C23.8839 10.5186 23.9448 10.8926 23.9891 11.2666C24.0223 11.5676 23.906 11.8504 23.7288 11.9142C23.7067 11.9142 23.6846 11.9233 23.6624 11.9233ZM1.46172 8.07409C1.38421 8.07409 1.31224 8.02848 1.25134 7.94639C1.10739 7.75484 1.09079 7.40823 1.21258 7.18019C1.36207 6.87918 1.52262 6.60554 1.69425 6.34102C1.83265 6.14034 2.0375 6.15859 2.16483 6.3775C2.28663 6.59642 2.27556 6.94303 2.14269 7.1437C1.99321 7.37174 1.84926 7.61802 1.71639 7.88254C1.64996 8.01024 1.55584 8.07409 1.46172 8.07409ZM22.5219 8.04673C22.4278 8.04673 22.3337 7.98288 22.2728 7.85518C22.1344 7.59065 21.9904 7.34438 21.841 7.11634C21.7026 6.91567 21.697 6.56905 21.8188 6.35014C21.9406 6.13122 22.151 6.11298 22.2839 6.31365C22.4555 6.56905 22.6216 6.85182 22.7711 7.1437C22.8929 7.37174 22.8763 7.71835 22.7378 7.90991C22.6769 8.00112 22.5994 8.04673 22.5219 8.04673ZM3.59874 5.58394C3.46587 5.58394 3.33854 5.44712 3.28871 5.2282C3.22227 4.95456 3.31085 4.63531 3.48248 4.53497C3.6984 4.39815 3.92539 4.27957 4.15238 4.18836C4.32954 4.12451 4.51224 4.30693 4.55099 4.59882C4.59528 4.89071 4.48456 5.18259 4.30739 5.25557C4.10809 5.32854 3.90878 5.42887 3.71501 5.54745C3.67625 5.57482 3.6375 5.58394 3.59874 5.58394ZM20.3794 5.57482C20.3406 5.57482 20.3019 5.55657 20.2631 5.53833C20.0693 5.41975 19.87 5.31941 19.6707 5.24644C19.4936 5.17347 19.3828 4.88159 19.4216 4.5897C19.4659 4.29781 19.643 4.11538 19.8202 4.17923C20.0472 4.27045 20.2742 4.37991 20.4956 4.51673C20.6673 4.61706 20.7503 4.93631 20.6894 5.21908C20.6396 5.43799 20.5122 5.57482 20.3794 5.57482Z" fill="white"/>
<path d="M10.0393 21.8823C9.83696 21.8823 9.63919 21.9434 9.47098 22.0578C9.30277 22.1722 9.17167 22.3348 9.09425 22.5251C9.01683 22.7153 8.99657 22.9247 9.03604 23.1266C9.07551 23.3286 9.17293 23.5141 9.31598 23.6597C9.45903 23.8053 9.64129 23.9045 9.83971 23.9446C10.0381 23.9848 10.2438 23.9642 10.4307 23.8854C10.6176 23.8066 10.7774 23.6731 10.8897 23.5019C11.0021 23.3307 11.0621 23.1294 11.0621 22.9235C11.0618 22.6475 10.9539 22.3828 10.7622 22.1877C10.5704 21.9925 10.3104 21.8827 10.0393 21.8823ZM10.0393 23.5482C9.91788 23.5482 9.79922 23.5115 9.69829 23.4429C9.59737 23.3743 9.51871 23.2767 9.47225 23.1626C9.4258 23.0484 9.41365 22.9228 9.43733 22.8016C9.46101 22.6804 9.51946 22.5691 9.60529 22.4818C9.69112 22.3944 9.80048 22.3349 9.91953 22.3108C10.0386 22.2867 10.162 22.2991 10.2741 22.3464C10.3863 22.3936 10.4821 22.4737 10.5496 22.5764C10.617 22.6792 10.653 22.7999 10.653 22.9235C10.653 23.0892 10.5883 23.2481 10.4732 23.3652C10.3581 23.4824 10.202 23.5482 10.0393 23.5482ZM17.9277 19.7647C17.8971 19.591 17.8568 19.4193 17.807 19.2503L17.5717 18.4466C17.514 18.2526 17.4023 18.0797 17.2502 17.9489C17.0981 17.8181 16.9121 17.7349 16.7145 17.7094C16.7043 17.7073 11.1456 17.7094 11.1456 17.7094C10.7677 17.7338 10.409 17.8871 10.1272 18.1446L8.85068 19.3753C8.71532 19.5067 8.54909 19.6006 8.36789 19.648L7.23045 19.9604L6.91336 20.0478C6.69514 20.1077 6.50237 20.2391 6.36482 20.4216C6.22727 20.6041 6.1526 20.8277 6.15234 21.0578V22.0843C6.15288 22.3619 6.26147 22.628 6.45433 22.8243C6.64719 23.0206 6.90861 23.1312 7.18135 23.1317H8.83022C8.81783 23.063 8.81167 22.9933 8.81181 22.9235C8.81181 22.7594 8.84356 22.597 8.90525 22.4454C8.96693 22.2938 9.05734 22.1561 9.17132 22.0401C9.2853 21.924 9.42062 21.832 9.56954 21.7692C9.71846 21.7064 9.87807 21.6741 10.0393 21.6741C10.2005 21.6741 10.3601 21.7064 10.509 21.7692C10.6579 21.832 10.7932 21.924 10.9072 22.0401C11.0212 22.1561 11.1116 22.2938 11.1733 22.4454C11.235 22.597 11.2667 22.7594 11.2667 22.9235C11.2669 22.9933 11.2607 23.063 11.2483 23.1317H14.3537C14.3413 23.063 14.3352 22.9933 14.3353 22.9235C14.3353 22.5921 14.4646 22.2744 14.6948 22.0401C14.925 21.8057 15.2372 21.6741 15.5628 21.6741C15.8883 21.6741 16.2005 21.8057 16.4307 22.0401C16.6609 22.2744 16.7902 22.5921 16.7902 22.9235C16.7904 22.9933 16.7842 23.063 16.7718 23.1317H16.9887C17.2614 23.1312 17.5228 23.0206 17.7157 22.8243C17.9085 22.628 18.0171 22.3619 18.0177 22.0843V20.7142C18.0175 20.3955 17.9874 20.0775 17.9277 19.7647ZM7.18749 20.5705C7.19231 20.7232 7.14292 20.8725 7.04838 20.9911C6.98532 21.0769 6.90425 21.1474 6.81107 21.1973C6.73222 21.2334 6.64775 21.2553 6.56149 21.2618V21.0578C6.56199 20.919 6.60733 20.7843 6.69052 20.6744C6.77371 20.5645 6.89012 20.4856 7.02179 20.4497L7.17113 20.4081C7.17993 20.4611 7.18539 20.5147 7.18749 20.5684V20.5705ZM11.6759 19.5918H9.22096L10.4095 18.4486C10.6192 18.2468 10.8963 18.1337 11.1849 18.1321C11.1918 18.1325 11.1987 18.1318 11.2053 18.13H11.6759V19.5918ZM13.517 19.5918H12.085V18.128L13.517 18.1259V19.5918ZM15.1536 19.0546C15.1533 19.197 15.0976 19.3334 14.9987 19.4341C14.8998 19.5348 14.7657 19.5915 14.6258 19.5918H13.9262V18.1238L15.1536 18.1217V19.0546ZM17.2853 19.5918C17.1456 19.5914 17.0118 19.5346 16.9133 19.4339C16.8147 19.3331 16.7594 19.1967 16.7595 19.0546V18.1425C16.8588 18.172 16.9491 18.2263 17.0224 18.3005C17.0957 18.3747 17.1495 18.4665 17.1789 18.5673C17.1789 18.5673 17.4571 19.5231 17.4735 19.5918H17.2853ZM15.5628 21.8823C15.3605 21.8823 15.1627 21.9434 14.9945 22.0578C14.8263 22.1722 14.6952 22.3348 14.6178 22.5251C14.5403 22.7153 14.5201 22.9247 14.5596 23.1266C14.599 23.3286 14.6964 23.5141 14.8395 23.6597C14.9825 23.8053 15.1648 23.9045 15.3632 23.9446C15.5616 23.9848 15.7673 23.9642 15.9542 23.8854C16.1411 23.8066 16.3009 23.6731 16.4133 23.5019C16.5257 23.3307 16.5856 23.1294 16.5856 22.9235C16.5853 22.6475 16.4775 22.3828 16.2857 22.1877C16.0939 21.9925 15.834 21.8827 15.5628 21.8823ZM15.5628 23.5482C15.4414 23.5482 15.3227 23.5115 15.2218 23.4429C15.1209 23.3743 15.0422 23.2767 14.9958 23.1626C14.9493 23.0484 14.9372 22.9228 14.9608 22.8016C14.9845 22.6804 15.043 22.5691 15.1288 22.4818C15.2146 22.3944 15.324 22.3349 15.443 22.3108C15.5621 22.2867 15.6855 22.2991 15.7976 22.3464C15.9098 22.3936 16.0056 22.4737 16.0731 22.5764C16.1405 22.6792 16.1765 22.7999 16.1765 22.9235C16.1765 23.0892 16.1118 23.2481 15.9967 23.3652C15.8816 23.4824 15.7255 23.5482 15.5628 23.5482Z" fill="white"/>
<path d="M14.1307 5.21536C14.333 5.21536 14.5307 5.27642 14.6989 5.39082C14.8671 5.50522 14.9983 5.66783 15.0757 5.85807C15.1531 6.04832 15.1733 6.25766 15.1339 6.45962C15.0944 6.66159 14.997 6.8471 14.8539 6.99271C14.7109 7.13832 14.5286 7.23748 14.3302 7.27765C14.1318 7.31782 13.9261 7.2972 13.7392 7.2184C13.5523 7.1396 13.3926 7.00615 13.2802 6.83494C13.1678 6.66372 13.1078 6.46243 13.1078 6.25651C13.1081 5.98048 13.216 5.71585 13.4077 5.52067C13.5995 5.32548 13.8595 5.21569 14.1307 5.21536ZM14.1307 6.8812C14.252 6.8812 14.3707 6.84456 14.4716 6.77592C14.5726 6.70727 14.6512 6.60971 14.6977 6.49556C14.7441 6.38142 14.7563 6.25581 14.7326 6.13463C14.7089 6.01346 14.6505 5.90215 14.5646 5.81478C14.4788 5.72742 14.3694 5.66792 14.2504 5.64382C14.1313 5.61972 14.0079 5.63209 13.8958 5.67937C13.7837 5.72665 13.6878 5.80672 13.6204 5.90945C13.5529 6.01218 13.5169 6.13295 13.5169 6.25651C13.5169 6.42218 13.5816 6.58108 13.6967 6.69823C13.8118 6.81538 13.9679 6.8812 14.1307 6.8812ZM6.24227 3.09766C6.27281 2.92401 6.31311 2.75229 6.36296 2.58333L6.59823 1.77956C6.65593 1.58558 6.76758 1.41274 6.91969 1.28194C7.07179 1.15113 7.25785 1.06795 7.45539 1.04243C7.46562 1.04035 13.0243 1.04243 13.0243 1.04243C13.4022 1.06681 13.761 1.22013 14.0427 1.47763L15.3192 2.70827C15.4546 2.83973 15.6208 2.93364 15.802 2.98105L16.9395 3.29339L17.2566 3.38085C17.4748 3.44073 17.6676 3.57208 17.8051 3.75462C17.9427 3.93716 18.0173 4.16072 18.0176 4.39077V5.41734C18.017 5.69496 17.9085 5.96105 17.7156 6.15735C17.5227 6.35366 17.2613 6.46419 16.9886 6.46474H15.3397C15.3521 6.39605 15.3583 6.32634 15.3581 6.25651C15.3581 6.09243 15.3264 5.92997 15.2647 5.77839C15.203 5.62681 15.1126 5.48908 14.9986 5.37306C14.8846 5.25705 14.7493 5.16502 14.6004 5.10223C14.4515 5.03944 14.2919 5.00713 14.1307 5.00713C13.9695 5.00713 13.8099 5.03944 13.6609 5.10223C13.512 5.16502 13.3767 5.25705 13.2627 5.37306C13.1487 5.48908 13.0583 5.62681 12.9966 5.77839C12.935 5.92997 12.9032 6.09243 12.9032 6.25651C12.9031 6.32634 12.9092 6.39605 12.9216 6.46474H9.81618C9.82858 6.39605 9.83474 6.32634 9.8346 6.25651C9.8346 5.92515 9.70528 5.60736 9.47508 5.37306C9.24489 5.13876 8.93269 5.00713 8.60715 5.00713C8.28161 5.00713 7.9694 5.13876 7.73921 5.37306C7.50902 5.60736 7.3797 5.92515 7.3797 6.25651C7.37955 6.32634 7.38572 6.39605 7.39811 6.46474H7.18126C6.90852 6.46419 6.6471 6.35366 6.45424 6.15735C6.26138 5.96105 6.15279 5.69496 6.15225 5.41734V4.04719C6.15241 3.72848 6.18255 3.41052 6.24227 3.09766ZM16.9824 3.90351C16.9776 4.05618 17.027 4.20551 17.1215 4.32413C17.1846 4.40995 17.2657 4.48037 17.3588 4.53028C17.4377 4.56645 17.5222 4.5883 17.6084 4.59483V4.39077C17.6079 4.25204 17.5626 4.11733 17.4794 4.00744C17.3962 3.89755 17.2798 3.81858 17.1481 3.78273L16.9988 3.74109C16.99 3.79412 16.9845 3.84768 16.9824 3.90143V3.90351ZM12.4941 2.92483H14.949L13.7604 1.78165C13.5508 1.57983 13.2736 1.46668 12.985 1.46514C12.9782 1.46548 12.9713 1.46478 12.9646 1.46305H12.4941V2.92483ZM10.6529 2.92483H12.0849V1.46097L10.6529 1.45889V2.92483ZM9.0163 2.38759C9.01662 2.52998 9.07233 2.66643 9.17124 2.76711C9.27016 2.86779 9.40422 2.9245 9.5441 2.92483H10.2437V1.45681L9.0163 1.45472V2.38759ZM6.88463 2.92483C7.02429 2.92439 7.15808 2.86758 7.25664 2.76686C7.3552 2.66615 7.4105 2.52975 7.41039 2.38759V1.47555C7.31116 1.50501 7.22078 1.55933 7.14751 1.63354C7.07425 1.70775 7.02044 1.79948 6.99101 1.90034C6.99101 1.90034 6.71279 2.85611 6.69642 2.92483H6.88463ZM8.60715 5.21536C8.80945 5.21536 9.00721 5.27642 9.17543 5.39082C9.34364 5.50522 9.47474 5.66783 9.55216 5.85807C9.62958 6.04832 9.64983 6.25766 9.61037 6.45962C9.5709 6.66159 9.47348 6.8471 9.33043 6.99271C9.18738 7.13832 9.00512 7.23748 8.8067 7.27765C8.60828 7.31782 8.40262 7.2972 8.21571 7.2184C8.02881 7.1396 7.86905 7.00615 7.75666 6.83494C7.64427 6.66372 7.58428 6.46243 7.58428 6.25651C7.5846 5.98048 7.69247 5.71585 7.88423 5.52067C8.07598 5.32548 8.33597 5.21569 8.60715 5.21536ZM8.60715 6.8812C8.72853 6.8812 8.84719 6.84456 8.94811 6.77592C9.04904 6.70727 9.1277 6.60971 9.17415 6.49556C9.22061 6.38142 9.23276 6.25581 9.20908 6.13463C9.1854 6.01346 9.12695 5.90215 9.04112 5.81478C8.95529 5.72742 8.84593 5.66792 8.72688 5.64382C8.60783 5.61972 8.48443 5.63209 8.37229 5.67937C8.26014 5.72665 8.16429 5.80672 8.09686 5.90945C8.02942 6.01218 7.99342 6.13295 7.99342 6.25651C7.99342 6.42218 8.05808 6.58108 8.17318 6.69823C8.28828 6.81538 8.44438 6.8812 8.60715 6.8812Z" fill="white"/>
</g>
<defs>
<clipPath id="clip0_397_207">
<rect width="30" height="30" fill="white"/>
</clipPath>
</defs>
</svg>
