<svg width="30" height="30" viewBox="0 0 24 25" fill="none" xmlns="http://www.w3.org/2000/svg">
<g clip-path="url(#clip0_361_895)">
<path fill-rule="evenodd" clip-rule="evenodd" d="M4.25203 21.8751C4.22989 21.8751 4.2022 21.866 4.18006 21.8568C3.95307 21.7656 3.72608 21.6562 3.50463 21.5193C3.333 21.419 3.24442 21.1089 3.31085 20.8261C3.37729 20.5434 3.56553 20.3974 3.73715 20.5069C3.93092 20.6163 4.13023 20.7167 4.32954 20.7988C4.5067 20.8626 4.61743 21.1545 4.57867 21.4464C4.53992 21.7018 4.40705 21.8751 4.25203 21.8751ZM19.7704 21.866C19.6209 21.866 19.4825 21.6927 19.4493 21.4464C19.405 21.1454 19.5157 20.8535 19.6929 20.7896C19.8922 20.7075 20.0915 20.6072 20.2852 20.4886C20.4569 20.3883 20.6451 20.5251 20.7115 20.8079C20.778 21.0906 20.6894 21.4008 20.5178 21.5102C20.3019 21.647 20.0749 21.7565 19.8479 21.8477C19.8202 21.8568 19.7925 21.866 19.7704 21.866ZM1.93784 19.8684C1.86034 19.8684 1.77729 19.8228 1.71639 19.7224C1.54476 19.467 1.37867 19.1843 1.22919 18.8924C1.10739 18.6643 1.124 18.3177 1.26241 18.1262C1.40082 17.9346 1.6112 17.962 1.72746 18.19C1.86587 18.4454 2.00982 18.6917 2.1593 18.9197C2.29771 19.1204 2.30324 19.467 2.18144 19.6859C2.11501 19.8045 2.02643 19.8684 1.93784 19.8684ZM22.079 19.841C21.9904 19.841 21.9019 19.7772 21.8354 19.6586C21.7136 19.4397 21.7192 19.093 21.8576 18.8924C22.007 18.6643 22.151 18.4181 22.2839 18.1535C22.4057 17.9255 22.6105 17.8981 22.7489 18.0897C22.8929 18.2904 22.9095 18.6278 22.7877 18.865C22.6382 19.1569 22.4776 19.4397 22.306 19.6951C22.2396 19.7954 22.1621 19.841 22.079 19.841ZM0.503934 16.2563C0.365526 16.2563 0.23819 16.1195 0.1939 15.8914C0.116391 15.5266 0.0554913 15.1435 0.0112006 14.7695C-0.0220174 14.4776 0.0942456 14.1857 0.271408 14.131C0.448571 14.0671 0.625733 14.2587 0.658951 14.5597C0.697706 14.8881 0.753069 15.2255 0.819505 15.5448C0.874868 15.8276 0.786287 16.1377 0.609125 16.2289C0.575907 16.2472 0.537152 16.2563 0.503934 16.2563ZM23.5019 16.2198C23.4686 16.2198 23.4354 16.2107 23.3967 16.1924C23.225 16.1012 23.1309 15.7911 23.1863 15.5083C23.2527 15.1799 23.3081 14.8516 23.3468 14.5232C23.3801 14.2222 23.5517 14.0306 23.7288 14.0854C23.9115 14.1492 24.0278 14.432 23.9946 14.7239C23.9503 15.107 23.8894 15.4809 23.8174 15.8458C23.7731 16.0738 23.6403 16.2198 23.5019 16.2198ZM0.332308 11.9601C0.310163 11.9601 0.288017 11.9601 0.265872 11.9509C0.0887093 11.8962 -0.0275537 11.6135 0.00566427 11.3124C0.0499549 10.9385 0.110855 10.5554 0.182827 10.1905C0.23819 9.90775 0.426426 9.75268 0.603588 9.8439C0.775214 9.94423 0.869332 10.2452 0.813969 10.5371C0.747533 10.8564 0.69217 11.1847 0.653415 11.5222C0.625734 11.7776 0.487325 11.9601 0.332308 11.9601ZM23.6624 11.9236C23.5074 11.9236 23.369 11.7412 23.3413 11.4858C23.3026 11.1483 23.2472 10.8199 23.1807 10.5006C23.1254 10.2088 23.214 9.90775 23.3911 9.80741C23.5628 9.70707 23.751 9.86214 23.8064 10.154C23.8839 10.5189 23.9448 10.8929 23.9891 11.2668C24.0223 11.5678 23.906 11.8506 23.7288 11.9145C23.7067 11.9145 23.6846 11.9236 23.6624 11.9236ZM1.46172 8.07434C1.38421 8.07434 1.31224 8.02873 1.25134 7.94663C1.10739 7.75508 1.09079 7.40847 1.21258 7.18043C1.36207 6.87943 1.52262 6.60578 1.69425 6.34126C1.83265 6.14059 2.0375 6.15883 2.16483 6.37775C2.28663 6.59666 2.27556 6.94328 2.14269 7.14395C1.99321 7.37198 1.84926 7.61826 1.71639 7.88278C1.64996 8.01048 1.55584 8.07434 1.46172 8.07434ZM22.5219 8.04697C22.4278 8.04697 22.3337 7.98312 22.2728 7.85542C22.1344 7.5909 21.9904 7.34462 21.841 7.11658C21.7026 6.91591 21.697 6.5693 21.8188 6.35038C21.9406 6.13147 22.151 6.11323 22.2839 6.3139C22.4555 6.5693 22.6216 6.85206 22.7711 7.14395C22.8929 7.37198 22.8763 7.7186 22.7378 7.91015C22.6769 8.00136 22.5994 8.04697 22.5219 8.04697ZM3.59874 5.58418C3.46587 5.58418 3.33854 5.44736 3.28871 5.22844C3.22227 4.9548 3.31085 4.63555 3.48248 4.53522C3.6984 4.39839 3.92539 4.27981 4.15238 4.1886C4.32954 4.12475 4.51224 4.30718 4.55099 4.59907C4.59528 4.89095 4.48456 5.18284 4.30739 5.25581C4.10809 5.32878 3.90878 5.42912 3.71501 5.5477C3.67625 5.57506 3.6375 5.58418 3.59874 5.58418ZM20.3794 5.57506C20.3406 5.57506 20.3019 5.55682 20.2631 5.53857C20.0693 5.42 19.87 5.31966 19.6707 5.24669C19.4936 5.17372 19.3828 4.88183 19.4216 4.58994C19.4659 4.29806 19.643 4.11563 19.8202 4.17948C20.0472 4.27069 20.2742 4.38015 20.4956 4.51697C20.6673 4.61731 20.7503 4.93656 20.6894 5.21932C20.6396 5.43824 20.5122 5.57506 20.3794 5.57506Z" fill="#007BFF"/>
<path d="M10.0393 21.8821C9.83696 21.8821 9.63919 21.9432 9.47098 22.0576C9.30277 22.172 9.17167 22.3346 9.09425 22.5248C9.01683 22.7151 8.99657 22.9244 9.03604 23.1264C9.07551 23.3283 9.17293 23.5138 9.31598 23.6595C9.45903 23.8051 9.64129 23.9042 9.83971 23.9444C10.0381 23.9846 10.2438 23.964 10.4307 23.8851C10.6176 23.8063 10.7774 23.6729 10.8897 23.5017C11.0021 23.3305 11.0621 23.1292 11.0621 22.9233C11.0618 22.6472 10.9539 22.3826 10.7622 22.1874C10.5704 21.9922 10.3104 21.8824 10.0393 21.8821ZM10.0393 23.5479C9.91788 23.5479 9.79922 23.5113 9.69829 23.4427C9.59737 23.374 9.51871 23.2765 9.47225 23.1623C9.4258 23.0482 9.41365 22.9226 9.43733 22.8014C9.46101 22.6802 9.51946 22.5689 9.60529 22.4815C9.69112 22.3942 9.80048 22.3347 9.91953 22.3106C10.0386 22.2865 10.162 22.2988 10.2741 22.3461C10.3863 22.3934 10.4821 22.4735 10.5496 22.5762C10.617 22.6789 10.653 22.7997 10.653 22.9233C10.653 23.0889 10.5883 23.2478 10.4732 23.365C10.3581 23.4821 10.202 23.5479 10.0393 23.5479ZM17.9277 19.7644C17.8971 19.5908 17.8568 19.419 17.807 19.2501L17.5717 18.4463C17.514 18.2523 17.4023 18.0795 17.2502 17.9487C17.0981 17.8179 16.9121 17.7347 16.7145 17.7092C16.7043 17.7071 11.1456 17.7092 11.1456 17.7092C10.7677 17.7336 10.409 17.8869 10.1272 18.1444L8.85068 19.375C8.71532 19.5065 8.54909 19.6004 8.36789 19.6478L7.23045 19.9601L6.91336 20.0476C6.69514 20.1075 6.50237 20.2388 6.36482 20.4214C6.22727 20.6039 6.1526 20.8275 6.15234 21.0575V22.0841C6.15288 22.3617 6.26147 22.6278 6.45433 22.8241C6.64719 23.0204 6.90861 23.1309 7.18135 23.1315H8.83022C8.81783 23.0628 8.81167 22.9931 8.81181 22.9233C8.81181 22.7592 8.84356 22.5967 8.90525 22.4451C8.96693 22.2936 9.05734 22.1558 9.17132 22.0398C9.2853 21.9238 9.42062 21.8318 9.56954 21.769C9.71846 21.7062 9.87807 21.6739 10.0393 21.6739C10.2005 21.6739 10.3601 21.7062 10.509 21.769C10.6579 21.8318 10.7932 21.9238 10.9072 22.0398C11.0212 22.1558 11.1116 22.2936 11.1733 22.4451C11.235 22.5967 11.2667 22.7592 11.2667 22.9233C11.2669 22.9931 11.2607 23.0628 11.2483 23.1315H14.3537C14.3413 23.0628 14.3352 22.9931 14.3353 22.9233C14.3353 22.5919 14.4646 22.2741 14.6948 22.0398C14.925 21.8055 15.2372 21.6739 15.5628 21.6739C15.8883 21.6739 16.2005 21.8055 16.4307 22.0398C16.6609 22.2741 16.7902 22.5919 16.7902 22.9233C16.7904 22.9931 16.7842 23.0628 16.7718 23.1315H16.9887C17.2614 23.1309 17.5228 23.0204 17.7157 22.8241C17.9085 22.6278 18.0171 22.3617 18.0177 22.0841V20.7139C18.0175 20.3952 17.9874 20.0773 17.9277 19.7644ZM7.18749 20.5703C7.19231 20.7229 7.14292 20.8723 7.04838 20.9909C6.98532 21.0767 6.90425 21.1471 6.81107 21.197C6.73222 21.2332 6.64775 21.255 6.56149 21.2616V21.0575C6.56199 20.9188 6.60733 20.7841 6.69052 20.6742C6.77371 20.5643 6.89012 20.4853 7.02179 20.4495L7.17113 20.4078C7.17993 20.4609 7.18539 20.5144 7.18749 20.5682V20.5703ZM11.6759 19.5916H9.22096L10.4095 18.4484C10.6192 18.2466 10.8963 18.1334 11.1849 18.1319C11.1918 18.1322 11.1987 18.1315 11.2053 18.1298H11.6759V19.5916ZM13.517 19.5916H12.085V18.1277L13.517 18.1256V19.5916ZM15.1536 19.0543C15.1533 19.1967 15.0976 19.3332 14.9987 19.4339C14.8998 19.5345 14.7657 19.5912 14.6258 19.5916H13.9262V18.1236L15.1536 18.1215V19.0543ZM17.2853 19.5916C17.1456 19.5911 17.0118 19.5343 16.9133 19.4336C16.8147 19.3329 16.7594 19.1965 16.7595 19.0543V18.1423C16.8588 18.1718 16.9491 18.2261 17.0224 18.3003C17.0957 18.3745 17.1495 18.4662 17.1789 18.5671C17.1789 18.5671 17.4571 19.5229 17.4735 19.5916H17.2853ZM15.5628 21.8821C15.3605 21.8821 15.1627 21.9432 14.9945 22.0576C14.8263 22.172 14.6952 22.3346 14.6178 22.5248C14.5403 22.7151 14.5201 22.9244 14.5596 23.1264C14.599 23.3283 14.6964 23.5138 14.8395 23.6595C14.9825 23.8051 15.1648 23.9042 15.3632 23.9444C15.5616 23.9846 15.7673 23.964 15.9542 23.8851C16.1411 23.8063 16.3009 23.6729 16.4133 23.5017C16.5257 23.3305 16.5856 23.1292 16.5856 22.9233C16.5853 22.6472 16.4775 22.3826 16.2857 22.1874C16.0939 21.9922 15.834 21.8824 15.5628 21.8821ZM15.5628 23.5479C15.4414 23.5479 15.3227 23.5113 15.2218 23.4427C15.1209 23.374 15.0422 23.2765 14.9958 23.1623C14.9493 23.0482 14.9372 22.9226 14.9608 22.8014C14.9845 22.6802 15.043 22.5689 15.1288 22.4815C15.2146 22.3942 15.324 22.3347 15.443 22.3106C15.5621 22.2865 15.6855 22.2988 15.7976 22.3461C15.9098 22.3934 16.0056 22.4735 16.0731 22.5762C16.1405 22.6789 16.1765 22.7997 16.1765 22.9233C16.1765 23.0889 16.1118 23.2478 15.9967 23.365C15.8816 23.4821 15.7255 23.5479 15.5628 23.5479Z" fill="#007BFF"/>
<path d="M14.1307 5.2156C14.333 5.2156 14.5307 5.27666 14.6989 5.39107C14.8671 5.50547 14.9983 5.66807 15.0757 5.85832C15.1531 6.04856 15.1733 6.2579 15.1339 6.45987C15.0944 6.66183 14.997 6.84735 14.8539 6.99295C14.7109 7.13856 14.5286 7.23772 14.3302 7.27789C14.1318 7.31807 13.9261 7.29745 13.7392 7.21865C13.5523 7.13984 13.3926 7.0064 13.2802 6.83518C13.1678 6.66397 13.1078 6.46267 13.1078 6.25675C13.1081 5.98072 13.216 5.71609 13.4077 5.52091C13.5995 5.32573 13.8595 5.21593 14.1307 5.2156ZM14.1307 6.88144C14.252 6.88144 14.3707 6.8448 14.4716 6.77616C14.5726 6.70752 14.6512 6.60995 14.6977 6.49581C14.7441 6.38166 14.7563 6.25606 14.7326 6.13488C14.7089 6.0137 14.6505 5.90239 14.5646 5.81503C14.4788 5.72766 14.3694 5.66817 14.2504 5.64406C14.1313 5.61996 14.0079 5.63233 13.8958 5.67961C13.7837 5.72689 13.6878 5.80696 13.6204 5.90969C13.5529 6.01242 13.5169 6.1332 13.5169 6.25675C13.5169 6.42243 13.5816 6.58132 13.6967 6.69847C13.8118 6.81562 13.9679 6.88144 14.1307 6.88144ZM6.24227 3.0979C6.27281 2.92425 6.31311 2.75253 6.36296 2.58357L6.59823 1.77981C6.65593 1.58582 6.76758 1.41299 6.91969 1.28218C7.07179 1.15138 7.25785 1.06819 7.45539 1.04267C7.46562 1.04059 13.0243 1.04267 13.0243 1.04267C13.4022 1.06706 13.761 1.22038 14.0427 1.47787L15.3192 2.70851C15.4546 2.83997 15.6208 2.93389 15.802 2.98129L16.9395 3.29364L17.2566 3.38109C17.4748 3.44097 17.6676 3.57233 17.8051 3.75486C17.9427 3.9374 18.0173 4.16096 18.0176 4.39101V5.41758C18.017 5.6952 17.9085 5.96129 17.7156 6.1576C17.5227 6.3539 17.2613 6.46443 16.9886 6.46498H15.3397C15.3521 6.39629 15.3583 6.32659 15.3581 6.25675C15.3581 6.09268 15.3264 5.93021 15.2647 5.77863C15.203 5.62705 15.1126 5.48932 14.9986 5.3733C14.8846 5.25729 14.7493 5.16526 14.6004 5.10247C14.4515 5.03969 14.2919 5.00737 14.1307 5.00737C13.9695 5.00737 13.8099 5.03969 13.6609 5.10247C13.512 5.16526 13.3767 5.25729 13.2627 5.3733C13.1487 5.48932 13.0583 5.62705 12.9966 5.77863C12.935 5.93021 12.9032 6.09268 12.9032 6.25675C12.9031 6.32659 12.9092 6.39629 12.9216 6.46498H9.81618C9.82858 6.39629 9.83474 6.32659 9.8346 6.25675C9.8346 5.92539 9.70528 5.60761 9.47508 5.3733C9.24489 5.139 8.93269 5.00737 8.60715 5.00737C8.28161 5.00737 7.9694 5.139 7.73921 5.3733C7.50902 5.60761 7.3797 5.92539 7.3797 6.25675C7.37955 6.32659 7.38572 6.39629 7.39811 6.46498H7.18126C6.90852 6.46443 6.6471 6.3539 6.45424 6.1576C6.26138 5.96129 6.15279 5.6952 6.15225 5.41758V4.04743C6.15241 3.72872 6.18255 3.41076 6.24227 3.0979ZM16.9824 3.90375C16.9776 4.05642 17.027 4.20575 17.1215 4.32438C17.1846 4.41019 17.2657 4.48062 17.3588 4.53052C17.4377 4.5667 17.5222 4.58854 17.6084 4.59508V4.39101C17.6079 4.25228 17.5626 4.11757 17.4794 4.00768C17.3962 3.89779 17.2798 3.81883 17.1481 3.78298L16.9988 3.74133C16.99 3.79437 16.9845 3.84792 16.9824 3.90167V3.90375ZM12.4941 2.92507H14.949L13.7604 1.78189C13.5508 1.58007 13.2736 1.46693 12.985 1.46538C12.9782 1.46572 12.9713 1.46502 12.9646 1.4633H12.4941V2.92507ZM10.6529 2.92507H12.0849V1.46122L10.6529 1.45913V2.92507ZM9.0163 2.38784C9.01662 2.53022 9.07233 2.66668 9.17124 2.76736C9.27016 2.86803 9.40422 2.92474 9.5441 2.92507H10.2437V1.45705L9.0163 1.45497V2.38784ZM6.88463 2.92507C7.02429 2.92463 7.15808 2.86782 7.25664 2.76711C7.3552 2.66639 7.4105 2.52999 7.41039 2.38784V1.47579C7.31116 1.50525 7.22078 1.55957 7.14751 1.63379C7.07425 1.708 7.02044 1.79973 6.99101 1.90058C6.99101 1.90058 6.71279 2.85636 6.69642 2.92507H6.88463ZM8.60715 5.2156C8.80945 5.2156 9.00721 5.27666 9.17543 5.39107C9.34364 5.50547 9.47474 5.66807 9.55216 5.85832C9.62958 6.04856 9.64983 6.2579 9.61037 6.45987C9.5709 6.66183 9.47348 6.84735 9.33043 6.99295C9.18738 7.13856 9.00512 7.23772 8.8067 7.27789C8.60828 7.31807 8.40262 7.29745 8.21571 7.21865C8.02881 7.13984 7.86905 7.0064 7.75666 6.83518C7.64427 6.66397 7.58428 6.46267 7.58428 6.25675C7.5846 5.98072 7.69247 5.71609 7.88423 5.52091C8.07598 5.32573 8.33597 5.21593 8.60715 5.2156ZM8.60715 6.88144C8.72853 6.88144 8.84719 6.8448 8.94811 6.77616C9.04904 6.70752 9.1277 6.60995 9.17415 6.49581C9.22061 6.38166 9.23276 6.25606 9.20908 6.13488C9.1854 6.0137 9.12695 5.90239 9.04112 5.81503C8.95529 5.72766 8.84593 5.66817 8.72688 5.64406C8.60783 5.61996 8.48443 5.63233 8.37229 5.67961C8.26014 5.72689 8.16429 5.80696 8.09686 5.90969C8.02942 6.01242 7.99342 6.1332 7.99342 6.25675C7.99342 6.42243 8.05808 6.58132 8.17318 6.69847C8.28828 6.81562 8.44438 6.88144 8.60715 6.88144Z" fill="#007BFF"/>
</g>
<defs>
<clipPath id="clip0_361_895">
<rect width="30" height="30" fill="white"/>
</clipPath>
</defs>
</svg>
